<svg width="20" height="21" viewBox="0 0 20 21" fill="none" xmlns="http://www.w3.org/2000/svg">
<path d="M14.1198 11.4923H10.9164V14.6956C10.9164 14.9742 10.8197 15.2102 10.6262 15.4036C10.4328 15.5971 10.1968 15.6938 9.91825 15.6938C9.6397 15.6938 9.4037 15.5971 9.21026 15.4036C9.01682 15.2102 8.9201 14.9742 8.9201 14.6956V11.4923H5.71672C5.43816 11.4923 5.20217 11.3955 5.00873 11.2021C4.81528 11.0087 4.71856 10.7727 4.71856 10.4941C4.71856 10.2155 4.81528 9.97955 5.00873 9.78611C5.20217 9.59267 5.43816 9.49595 5.71672 9.49595H8.9201V6.29257C8.9201 6.01401 9.01682 5.77802 9.21026 5.58457C9.4037 5.39113 9.6397 5.29441 9.91825 5.29441C10.1968 5.29441 10.4328 5.39113 10.6262 5.58457C10.8197 5.77802 10.9164 6.01401 10.9164 6.29257V9.49595H14.1198C14.3983 9.49595 14.6343 9.59267 14.8278 9.78611C15.0212 9.97955 15.1179 10.2155 15.1179 10.4941C15.1179 10.7727 15.0212 11.0087 14.8278 11.2021C14.6343 11.3955 14.3983 11.4923 14.1198 11.4923ZM9.91825 0.582197C8.55643 0.582197 7.27198 0.845276 6.06491 1.37144C4.85784 1.88212 3.80939 2.58624 2.91957 3.48381C2.02974 4.38137 1.32174 5.43369 0.795586 6.64076C0.269427 7.84783 0.00634766 9.13228 0.00634766 10.4941C0.00634766 11.8559 0.269427 13.1404 0.795586 14.3474C1.32174 15.5545 2.02974 16.6068 2.91957 17.5044C3.80939 18.402 4.85784 19.1061 6.06491 19.6168C7.27198 20.1429 8.55643 20.406 9.91825 20.406C11.2801 20.406 12.5645 20.1429 13.7716 19.6168C14.9787 19.1061 16.0271 18.402 16.9169 17.5044C17.8068 16.6068 18.5148 15.5545 19.0409 14.3474C19.5671 13.1404 19.8302 11.8559 19.8302 10.4941C19.8302 9.13228 19.5671 7.84783 19.0409 6.64076C18.5148 5.43369 17.8068 4.38137 16.9169 3.48381C16.0271 2.58624 14.9787 1.88212 13.7716 1.37144C12.5645 0.845276 11.2801 0.582197 9.91825 0.582197Z" fill="black" fill-opacity="0.56"/>
</svg>
