<svg width="18" height="17" viewBox="0 0 18 17" fill="none" xmlns="http://www.w3.org/2000/svg">
<path id="Vector" d="M15.3433 13.0795L14.9137 14.7592C14.7314 15.4493 14.331 15.9734 13.7125 16.3315C13.094 16.6895 12.4397 16.7774 11.7496 16.5951L10.1871 16.1654C10.6949 16.0873 11.1897 15.9636 11.6715 15.7944C12.1663 15.6121 12.6318 15.3907 13.068 15.1303C13.5042 14.8699 13.9176 14.5704 14.3082 14.2319C14.6858 13.8803 15.0308 13.4962 15.3433 13.0795ZM9.07381 1.10685C10.0764 1.10685 11.0139 1.29565 11.8863 1.67326C12.7587 2.05086 13.5237 2.56844 14.1812 3.22599C14.8388 3.88354 15.3564 4.64852 15.734 5.52092C16.1116 6.39331 16.3004 7.33081 16.3004 8.33342C16.3004 9.33602 16.1116 10.2735 15.734 11.1459C15.3564 12.0313 14.8388 12.7996 14.1812 13.4506C13.5237 14.1016 12.7587 14.616 11.8863 14.9936C11.0009 15.3712 10.0634 15.56 9.07381 15.56C8.07121 15.56 7.13371 15.3712 6.26131 14.9936C5.3759 14.616 4.60767 14.0984 3.95662 13.4408C3.30558 12.7833 2.79126 12.0183 2.41366 11.1459C2.03605 10.2735 1.84725 9.33602 1.84725 8.33342C1.84725 7.33081 2.03605 6.39331 2.41366 5.52092C2.79126 4.64852 3.30884 3.88354 3.96639 3.22599C4.62394 2.56844 5.38892 2.05086 6.26131 1.67326C7.13371 1.29565 8.07121 1.10685 9.07381 1.10685ZM1.20272 9.60295C1.35897 10.5795 1.68774 11.4942 2.18905 12.3471C2.69035 13.2 3.33813 13.9389 4.13241 14.5639L2.66756 14.1733C1.97746 13.991 1.45337 13.5906 1.0953 12.9721C0.737223 12.3536 0.649332 11.6993 0.831624 11.0092L1.20272 9.60295ZM11.5347 9.54435C10.9749 9.42717 10.4573 9.52808 9.98201 9.84709C9.50675 10.1661 9.21704 10.6056 9.11287 11.1654C9.00871 11.7253 9.11613 12.2429 9.43514 12.7182C9.75415 13.1934 10.1936 13.4832 10.7535 13.5873C11.3134 13.6915 11.8277 13.5841 12.2965 13.2651C12.7652 12.946 13.0582 12.5066 13.1754 11.9467C13.2795 11.3868 13.1721 10.8725 12.8531 10.4037C12.5341 9.93498 12.0946 9.64852 11.5347 9.54435ZM6.35897 8.52873C5.79907 8.42456 5.28149 8.53198 4.80623 8.85099C4.33097 9.17 4.04126 9.60946 3.93709 10.1694C3.81991 10.7292 3.92082 11.2468 4.23983 11.7221C4.55884 12.1973 4.99829 12.4871 5.55819 12.5912C6.11808 12.6954 6.63566 12.588 7.11092 12.269C7.58618 11.95 7.8759 11.5105 7.98006 10.9506C8.09725 10.3907 7.99634 9.87638 7.67733 9.40763C7.35832 8.93888 6.91886 8.64592 6.35897 8.52873ZM9.21053 7.49357C8.96313 7.44149 8.73527 7.48706 8.52694 7.63029C8.3186 7.77352 8.1884 7.96883 8.13631 8.21623C8.08423 8.46362 8.1298 8.69149 8.27303 8.89982C8.41626 9.10815 8.61157 9.23836 8.85897 9.29045C9.10636 9.32951 9.33748 9.27743 9.55233 9.1342C9.76717 8.99097 9.89412 8.79565 9.93319 8.54826C9.98527 8.30086 9.9397 8.073 9.79647 7.86467C9.65324 7.65633 9.45793 7.53263 9.21053 7.49357ZM12.5894 4.0756C12.0295 3.97144 11.512 4.07886 11.0367 4.39787C10.5614 4.71688 10.2717 5.15633 10.1676 5.71623C10.0634 6.27612 10.1708 6.79045 10.4898 7.2592C10.8088 7.72795 11.2483 8.0144 11.8082 8.11857C11.8082 8.13159 11.8082 8.1381 11.8082 8.1381C12.3681 8.24227 12.8824 8.13485 13.3512 7.81584C13.8199 7.49683 14.1064 7.05737 14.2105 6.49748C14.3277 5.93758 14.2268 5.42 13.9078 4.94474C13.5888 4.46948 13.1493 4.17977 12.5894 4.0756ZM13.8394 2.06388L15.4801 2.49357C16.1702 2.67586 16.6943 3.07625 17.0523 3.69474C17.4104 4.31323 17.4983 4.96753 17.316 5.65763L16.8668 7.35685C16.8017 6.83602 16.6845 6.32821 16.5152 5.83342C16.359 5.33862 16.1506 4.86336 15.8902 4.40763C15.6298 3.9519 15.3303 3.52873 14.9918 3.1381C14.6532 2.74748 14.2691 2.3894 13.8394 2.06388ZM7.39412 3.07951C6.83423 2.97534 6.31991 3.08276 5.85116 3.40177C5.38241 3.72079 5.08944 4.16024 4.97225 4.72013C4.86808 5.28003 4.9755 5.79435 5.29451 6.2631C5.61352 6.73185 6.05298 7.01831 6.61287 7.12248C7.17277 7.23967 7.69035 7.13875 8.16561 6.81974C8.64087 6.50073 8.93058 6.06128 9.03475 5.50138C9.13892 4.94149 9.03149 4.42391 8.71248 3.94865C8.39347 3.47339 7.95402 3.18368 7.39412 3.07951ZM3.23397 1.90763C3.41626 1.23055 3.81665 0.712973 4.43514 0.3549C5.05363 -0.00317383 5.70793 -0.0910645 6.39803 0.0912285L7.941 0.481853C6.9384 0.625082 5.99764 0.944092 5.11873 1.43888C4.23983 1.93368 3.48787 2.57821 2.86287 3.37248L3.23397 1.92717C3.23397 1.92717 3.23397 1.92391 3.23397 1.9174C3.23397 1.91089 3.23397 1.90763 3.23397 1.90763Z" fill="black" fill-opacity="0.56"/>
</svg>
