<svg width="9" height="6" viewBox="0 0 9 6" fill="none" xmlns="http://www.w3.org/2000/svg">
<path id="Vector" d="M8.52563 0.31189C8.37329 0.159546 8.19458 0.083374 7.9895 0.083374C7.78442 0.083374 7.60571 0.159546 7.45337 0.31189L4.55298 3.21228L1.65259 0.31189C1.50024 0.159546 1.32153 0.083374 1.11646 0.083374C0.911377 0.083374 0.732666 0.159546 0.580322 0.31189C0.439697 0.452515 0.369385 0.628296 0.369385 0.839233C0.369385 1.05017 0.439697 1.22595 0.580322 1.36658L4.02563 4.81189C4.09595 4.8822 4.17798 4.93787 4.27173 4.97888C4.36548 5.0199 4.45923 5.04041 4.55298 5.04041C4.64673 5.04041 4.74048 5.0199 4.83423 4.97888C4.92798 4.93787 5.01001 4.8822 5.08032 4.81189L8.52563 1.36658C8.66626 1.22595 8.73657 1.05017 8.73657 0.839233C8.73657 0.628296 8.66626 0.452515 8.52563 0.31189Z" fill="black" fill-opacity="0.56"/>
</svg>
