<svg width="19" height="19" viewBox="0 0 19 19" fill="none" xmlns="http://www.w3.org/2000/svg">
<path id="Vector" d="M17.2093 0.372437C17.3395 0.333374 17.4697 0.323608 17.5999 0.34314C17.7301 0.362671 17.8538 0.411499 17.971 0.489624C18.0752 0.567749 18.1598 0.665405 18.2249 0.782593C18.29 0.89978 18.3226 1.02999 18.3226 1.17322V17.8334C18.3226 18.0677 18.2412 18.2663 18.0784 18.4291C17.9157 18.5918 17.7171 18.6732 17.4827 18.6732H2.52179C2.30044 18.6732 2.10838 18.5918 1.94562 18.4291C1.78286 18.2663 1.70148 18.0677 1.70148 17.8334V12.7552C1.64939 12.7813 1.59406 12.8008 1.53546 12.8138C1.47687 12.8269 1.42153 12.8334 1.36945 12.8334C1.23924 12.8334 1.11228 12.8041 0.988586 12.7455C0.864889 12.6869 0.763977 12.599 0.685852 12.4818C0.555644 12.2995 0.506816 12.0944 0.539368 11.8666C0.57192 11.6387 0.685852 11.4597 0.881165 11.3295L6.70148 7.14978C6.84471 7.04561 7.00747 6.99353 7.18976 6.99353C7.37205 6.99353 7.53481 7.04561 7.67804 7.14978L9.35773 8.36072V3.67322C9.35773 3.49093 9.40656 3.32817 9.50421 3.18494C9.60187 3.04171 9.73533 2.93754 9.9046 2.87244L17.2093 0.372437ZM7.18976 8.849L3.36163 11.6029V16.9935H11.0179V11.6029L7.18976 8.849ZM16.6429 2.32556L11.0179 4.25916V9.55212L13.4984 11.3295C13.6806 11.4597 13.7913 11.6387 13.8304 11.8666C13.8694 12.0944 13.8239 12.2995 13.6937 12.4818C13.6155 12.599 13.5146 12.6869 13.3909 12.7455C13.2672 12.8041 13.1403 12.8334 13.0101 12.8334C12.958 12.8334 12.9026 12.8269 12.8441 12.8138C12.7855 12.8008 12.7301 12.7813 12.678 12.7552V16.9935H16.6429V2.32556ZM9.08429 13.1459C9.30564 13.1459 9.4977 13.2273 9.66046 13.39C9.82322 13.5528 9.9046 13.7513 9.9046 13.9857C9.9046 14.2071 9.82322 14.3991 9.66046 14.5619C9.4977 14.7247 9.30564 14.806 9.08429 14.806H5.33429C5.09991 14.806 4.9046 14.7247 4.74835 14.5619C4.5921 14.3991 4.51398 14.2071 4.51398 13.9857C4.51398 13.7513 4.5921 13.5528 4.74835 13.39C4.9046 13.2273 5.09991 13.1459 5.33429 13.1459H9.08429Z" fill="black" fill-opacity="0.56"/>
</svg>
