<svg width="18" height="15" viewBox="0 0 18 15" fill="none" xmlns="http://www.w3.org/2000/svg">
<path id="Vector" d="M14.7191 12.7435H3.03937C2.81801 12.7435 2.62596 12.6622 2.4632 12.4994C2.30044 12.3366 2.21906 12.1446 2.21906 11.9232V8.58337H4.28937V9.83337C4.28937 10.0677 4.37075 10.2663 4.53351 10.4291C4.69627 10.5918 4.89484 10.6732 5.12921 10.6732C5.36359 10.6732 5.56215 10.5918 5.72491 10.4291C5.88767 10.2663 5.96906 10.0677 5.96906 9.83337V8.58337H11.7894V9.83337C11.7894 10.0677 11.8707 10.2663 12.0335 10.4291C12.1963 10.5918 12.3948 10.6732 12.6292 10.6732C12.8636 10.6732 13.0622 10.5918 13.2249 10.4291C13.3877 10.2663 13.4691 10.0677 13.4691 9.83337V8.58337H15.5394V11.9232C15.5394 12.1446 15.458 12.3366 15.2952 12.4994C15.1325 12.6622 14.9404 12.7435 14.7191 12.7435ZM15.5394 4.83337V6.92322H2.21906V4.83337C2.21906 4.71619 2.25812 4.61853 2.33624 4.54041C2.41437 4.46228 2.51202 4.42322 2.62921 4.42322H15.1292C15.2464 4.42322 15.3441 4.46228 15.4222 4.54041C15.5003 4.61853 15.5394 4.71619 15.5394 4.83337ZM6.78937 1.92322H10.9691C11.0732 1.92322 11.1676 1.96228 11.2523 2.04041C11.3369 2.11853 11.3792 2.21619 11.3792 2.33337V2.74353H6.37921V2.33337C6.37921 2.21619 6.41827 2.11853 6.4964 2.04041C6.57452 1.96228 6.67218 1.92322 6.78937 1.92322ZM15.5394 2.74353H13.0394V1.92322C13.0394 1.45447 12.8766 1.05733 12.5511 0.731812C12.2256 0.406291 11.8349 0.24353 11.3792 0.24353H6.37921C5.92348 0.24353 5.53286 0.406291 5.20734 0.731812C4.88182 1.05733 4.71906 1.45447 4.71906 1.92322V2.74353H2.21906C1.75031 2.74353 1.35317 2.90629 1.02765 3.23181C0.702128 3.55733 0.539368 3.95447 0.539368 4.42322V11.9232C0.539368 12.6133 0.783508 13.2025 1.27179 13.6908C1.76007 14.1791 2.34926 14.4232 3.03937 14.4232H14.7191C15.4092 14.4232 15.9984 14.1791 16.4866 13.6908C16.9749 13.2025 17.2191 12.6133 17.2191 11.9232V4.42322C17.2191 3.95447 17.0563 3.55733 16.7308 3.23181C16.4053 2.90629 16.0081 2.74353 15.5394 2.74353Z" fill="black" fill-opacity="0.56"/>
</svg>
