<svg width="21" height="16" viewBox="0 0 21 16" fill="none" xmlns="http://www.w3.org/2000/svg">
<path id="Vector" d="M3.78866 11.4935V10.224H3.84725C4.26392 10.2761 4.68384 10.3249 5.10702 10.3705C5.5302 10.4161 5.95012 10.4519 6.36678 10.4779C6.37981 10.4779 6.38957 10.4779 6.39608 10.4779C6.40259 10.4779 6.41236 10.4779 6.42538 10.4779C6.58163 10.4779 6.7216 10.4226 6.8453 10.3119C6.969 10.2012 7.03736 10.0677 7.05038 9.9115C7.0634 9.74223 7.01132 9.58923 6.89413 9.45251C6.77694 9.3158 6.63371 9.24093 6.46444 9.22791C6.06079 9.20186 5.65064 9.16606 5.23397 9.12048C4.81731 9.07491 4.40064 9.02608 3.98397 8.974L3.78866 8.95447V8.56384C3.78866 8.42061 3.79517 8.27738 3.80819 8.13416C3.82121 7.99093 3.84074 7.85421 3.86678 7.724C4.42668 7.7891 4.98007 7.8477 5.52694 7.89978C6.08684 7.95186 6.64348 7.99418 7.19686 8.02673C7.75025 8.05929 8.30689 8.08858 8.86679 8.11462C9.41366 8.12765 9.96704 8.13416 10.5269 8.13416C11.0868 8.13416 11.6402 8.12765 12.1871 8.11462C12.747 8.08858 13.3036 8.05929 13.857 8.02673C14.4104 7.99418 14.967 7.95186 15.5269 7.89978C16.0868 7.8477 16.6402 7.7891 17.1871 7.724C17.2131 7.85421 17.2327 7.99093 17.2457 8.13416C17.2587 8.27738 17.2652 8.42061 17.2652 8.56384V8.95447L17.0504 8.974C16.6467 9.02608 16.2366 9.07491 15.8199 9.12048C15.4032 9.16606 14.9931 9.20186 14.5894 9.22791C14.4071 9.24093 14.2607 9.3158 14.15 9.45251C14.0393 9.58923 13.9905 9.74223 14.0035 9.9115C14.0165 10.0677 14.0849 10.2012 14.2086 10.3119C14.3323 10.4226 14.4723 10.4779 14.6285 10.4779C14.6415 10.4779 14.6513 10.4779 14.6578 10.4779C14.6643 10.4779 14.6741 10.4779 14.6871 10.4779C15.1038 10.4519 15.5237 10.4161 15.9469 10.3705C16.37 10.3249 16.79 10.2761 17.2066 10.224H17.2652V11.4935C16.1454 11.6107 15.0256 11.6954 13.9058 11.7474C12.773 11.7995 11.6435 11.8256 10.5172 11.8256C9.39087 11.8256 8.26783 11.7995 7.14803 11.7474C6.02824 11.6954 4.90845 11.6107 3.78866 11.4935ZM6.15194 2.97791C6.25611 2.78259 6.40585 2.63285 6.60116 2.52869C6.79647 2.42452 7.00481 2.37244 7.22616 2.37244H13.8277C14.0491 2.37244 14.2574 2.42452 14.4527 2.52869C14.648 2.63285 14.7978 2.78259 14.9019 2.97791L16.5816 6.10291C15.566 6.22009 14.5569 6.31124 13.5543 6.37634C12.5517 6.42843 11.5426 6.45447 10.5269 6.45447C9.51132 6.45447 8.5022 6.42843 7.4996 6.37634C6.49699 6.31124 5.48788 6.22009 4.47225 6.10291L6.15194 2.97791ZM20.4293 5.41931C20.3121 5.224 20.1428 5.09379 19.9215 5.02869C19.7001 4.96358 19.4918 4.98962 19.2965 5.10681L18.2418 5.69275C18.2288 5.67973 18.219 5.66671 18.2125 5.65369C18.206 5.64067 18.2027 5.62764 18.2027 5.61462L16.3668 2.17712C16.1194 1.72139 15.7678 1.36007 15.3121 1.09314C14.8564 0.826213 14.3616 0.692749 13.8277 0.692749H7.22616C6.69231 0.692749 6.19751 0.826213 5.74178 1.09314C5.28606 1.36007 4.93449 1.72139 4.6871 2.17712L2.85116 5.61462C2.85116 5.62764 2.8479 5.64067 2.84139 5.65369C2.83488 5.66671 2.83163 5.67973 2.83163 5.69275L1.75741 5.10681C1.5621 4.98962 1.35376 4.96358 1.13241 5.02869C0.911056 5.09379 0.741785 5.224 0.624597 5.41931C0.52043 5.62764 0.497644 5.84249 0.556238 6.06384C0.614832 6.2852 0.748295 6.44796 0.956628 6.55212L2.26522 7.27478C2.21314 7.48311 2.17408 7.6947 2.14803 7.90955C2.12199 8.12439 2.10897 8.34249 2.10897 8.56384V12.2552H2.1285C2.1285 12.2943 2.1285 12.3334 2.1285 12.3724C2.1285 12.4115 2.13501 12.4506 2.14803 12.4896V13.7396V14.7748C2.14803 15.0743 2.24895 15.3249 2.45077 15.5267C2.65259 15.7286 2.89673 15.8295 3.18319 15.8295C3.46965 15.8295 3.71379 15.7286 3.91561 15.5267C4.11744 15.3249 4.21835 15.0743 4.21835 14.7748V13.7396V13.2123C4.7522 13.2644 5.27954 13.3099 5.80038 13.349C6.32121 13.375 6.8453 13.4011 7.37264 13.4271C7.89999 13.4532 8.42408 13.4727 8.94491 13.4857C9.46574 13.4987 9.99309 13.5052 10.5269 13.5052C11.0478 13.5052 11.5751 13.4987 12.109 13.4857C12.6298 13.4727 13.1539 13.4532 13.6812 13.4271C14.2086 13.4011 14.7327 13.375 15.2535 13.349C15.7743 13.3099 16.2952 13.2644 16.816 13.2123V13.7396V14.7748C16.816 15.0743 16.9202 15.3249 17.1285 15.5267C17.3368 15.7286 17.5842 15.8295 17.8707 15.8295C18.1571 15.8295 18.4013 15.7286 18.6031 15.5267C18.8049 15.3249 18.9058 15.0743 18.9058 14.7748V13.7396V12.431C18.9189 12.405 18.9254 12.3757 18.9254 12.3431C18.9254 12.3106 18.9254 12.2813 18.9254 12.2552H18.9449V8.56384C18.9449 8.34249 18.9319 8.12439 18.9058 7.90955C18.8798 7.6947 18.8407 7.48311 18.7887 7.27478L20.0973 6.55212C20.3056 6.44796 20.4391 6.2852 20.4976 6.06384C20.5562 5.84249 20.5335 5.62764 20.4293 5.41931Z" fill="black" fill-opacity="0.56"/>
</svg>
