<svg width="13" height="19" viewBox="0 0 13 19" fill="none" xmlns="http://www.w3.org/2000/svg">
<path id="Vector" d="M9.71906 0.173218C10.4092 0.173218 10.9984 0.417358 11.4866 0.90564C11.9749 1.39392 12.2191 1.98311 12.2191 2.67322V15.9935C12.2191 16.6836 11.9749 17.2728 11.4866 17.7611C10.9984 18.2494 10.4092 18.4935 9.71906 18.4935H3.03937C2.34926 18.4935 1.76007 18.2494 1.27179 17.7611C0.783508 17.2728 0.539368 16.6836 0.539368 15.9935V2.67322C0.539368 1.98311 0.783508 1.39392 1.27179 0.90564C1.76007 0.417358 2.34926 0.173218 3.03937 0.173218H9.71906ZM9.71906 1.83337H3.03937C2.81801 1.83337 2.62596 1.91475 2.4632 2.07751C2.30044 2.24027 2.21906 2.43884 2.21906 2.67322V15.9935C2.21906 16.2279 2.30044 16.4265 2.4632 16.5892C2.62596 16.752 2.81801 16.8334 3.03937 16.8334H9.71906C9.94041 16.8334 10.1325 16.752 10.2952 16.5892C10.458 16.4265 10.5394 16.2279 10.5394 15.9935V2.67322C10.5394 2.43884 10.458 2.24027 10.2952 2.07751C10.1325 1.91475 9.94041 1.83337 9.71906 1.83337ZM6.37921 13.0834C6.71775 13.0834 7.01072 13.2038 7.25812 13.4447C7.50551 13.6856 7.62921 13.9818 7.62921 14.3334C7.62921 14.6849 7.50551 14.9812 7.25812 15.222C7.01072 15.4629 6.71775 15.5834 6.37921 15.5834C6.04067 15.5834 5.7477 15.4629 5.50031 15.222C5.25291 14.9812 5.12921 14.6849 5.12921 14.3334C5.12921 13.9818 5.25291 13.6856 5.50031 13.4447C5.7477 13.2038 6.04067 13.0834 6.37921 13.0834Z" fill="black" fill-opacity="0.56"/>
</svg>
