<svg width="14" height="18" viewBox="0 0 14 18" fill="none" xmlns="http://www.w3.org/2000/svg">
<path id="Vector" d="M2.45622 11.8334L4.91716 2.67322H9.48747L11.9484 11.8334H2.45622ZM13.8429 12.4584L10.9328 1.61853C10.8807 1.43624 10.7798 1.2865 10.63 1.16931C10.4803 1.05212 10.3078 0.99353 10.1125 0.99353H4.29216C4.09685 0.99353 3.92432 1.05212 3.77458 1.16931C3.62484 1.2865 3.52393 1.43624 3.47185 1.61853L0.561689 12.4584C0.535647 12.5756 0.532392 12.6993 0.551923 12.8295C0.571455 12.9597 0.620283 13.0769 0.698408 13.181C0.789554 13.2852 0.890465 13.3633 1.00114 13.4154C1.11182 13.4675 1.23226 13.4935 1.36247 13.4935H6.36247V15.9935H3.86247C3.64112 15.9935 3.44906 16.0749 3.2863 16.2377C3.12354 16.4004 3.04216 16.599 3.04216 16.8334C3.04216 17.0677 3.12354 17.2663 3.2863 17.4291C3.44906 17.5918 3.64112 17.6732 3.86247 17.6732H10.5422C10.7635 17.6732 10.9556 17.5918 11.1183 17.4291C11.2811 17.2663 11.3625 17.0677 11.3625 16.8334C11.3625 16.599 11.2811 16.4004 11.1183 16.2377C10.9556 16.0749 10.7635 15.9935 10.5422 15.9935H8.04216V13.4935H13.0422C13.1724 13.4935 13.2928 13.4675 13.4035 13.4154C13.5142 13.3633 13.6151 13.2852 13.7062 13.181C13.7843 13.0769 13.8332 12.9597 13.8527 12.8295C13.8722 12.6993 13.869 12.5756 13.8429 12.4584Z" fill="black" fill-opacity="0.56"/>
</svg>
