<svg width="13" height="19" viewBox="0 0 13 19" fill="none" xmlns="http://www.w3.org/2000/svg">
<path id="Vector" d="M10.5394 10.5834C10.5394 10.7006 10.5003 10.7982 10.4222 10.8763C10.3441 10.9545 10.2464 10.9935 10.1292 10.9935H7.53156H5.34406H2.62921C2.51202 10.9935 2.41437 10.9545 2.33624 10.8763C2.25812 10.7982 2.21906 10.7006 2.21906 10.5834V8.49353H10.5394V10.5834ZM6.96515 16.306C6.96515 16.4493 6.91307 16.573 6.8089 16.6771C6.70473 16.7813 6.57452 16.8334 6.41827 16.8334C6.27504 16.8334 6.15135 16.7845 6.04718 16.6869C5.94301 16.5892 5.88442 16.4883 5.8714 16.3842L6.12531 12.6732H6.75031L6.96515 16.306ZM3.03937 1.83337H3.87921V3.49353C3.87921 3.72791 3.96059 3.92647 4.12335 4.08923C4.28611 4.25199 4.48468 4.33337 4.71906 4.33337C4.94041 4.33337 5.13247 4.25199 5.29523 4.08923C5.45799 3.92647 5.53937 3.72791 5.53937 3.49353V2.45837C5.53937 2.2891 5.60122 2.14262 5.72491 2.01892C5.84861 1.89522 5.9951 1.83337 6.16437 1.83337C6.34666 1.83337 6.4964 1.89522 6.61359 2.01892C6.73077 2.14262 6.78937 2.2891 6.78937 2.45837V4.33337C6.78937 4.56775 6.87075 4.76632 7.03351 4.92908C7.19627 5.09184 7.39484 5.17322 7.62921 5.17322C7.86359 5.17322 8.06215 5.09184 8.22491 4.92908C8.38767 4.76632 8.46906 4.56775 8.46906 4.33337V2.45837C8.46906 2.2891 8.52765 2.14262 8.64484 2.01892C8.76202 1.89522 8.91176 1.83337 9.09406 1.83337H9.71906V6.83337H3.03937V1.83337ZM11.3792 6.83337V0.99353C11.3792 0.772177 11.2978 0.580118 11.1351 0.417358C10.9723 0.254599 10.7737 0.173218 10.5394 0.173218H2.21906C1.98468 0.173218 1.78611 0.254599 1.62335 0.417358C1.46059 0.580118 1.37921 0.772177 1.37921 0.99353V6.83337C1.14484 6.83337 0.946269 6.91475 0.783508 7.07751C0.620748 7.24028 0.539368 7.43884 0.539368 7.67322V10.9935C0.539368 11.4623 0.702128 11.8594 1.02765 12.1849C1.35317 12.5105 1.75031 12.6732 2.21906 12.6732H4.44562L4.21124 16.3646C4.22426 16.9636 4.44562 17.4681 4.87531 17.8783C5.30499 18.2885 5.81932 18.4935 6.41827 18.4935C7.03025 18.4935 7.54783 18.2852 7.97101 17.8685C8.39419 17.4519 8.61879 16.918 8.64484 16.267L8.41046 12.6732H10.5394C11.0081 12.6732 11.4053 12.5105 11.7308 12.1849C12.0563 11.8594 12.2191 11.4623 12.2191 10.9935V7.67322C12.2191 7.43884 12.1377 7.24028 11.9749 7.07751C11.8122 6.91475 11.6136 6.83337 11.3792 6.83337Z" fill="black" fill-opacity="0.56"/>
</svg>
