<svg width="14" height="21" viewBox="0 0 14 21" fill="none" xmlns="http://www.w3.org/2000/svg">
<path id="Vector" d="M9.15265 0.333374C9.56932 0.333374 9.93064 0.466837 10.2366 0.733765C10.5426 1.00069 10.7282 1.33598 10.7933 1.73962L11.3206 5.099C12.1019 5.71098 12.7204 6.4727 13.1761 7.38416C13.6318 8.29561 13.8597 9.27869 13.8597 10.3334C13.8597 11.3881 13.6318 12.3711 13.1761 13.2826C12.7204 14.1941 12.1019 14.9558 11.3206 15.5677L10.7933 18.9271C10.7282 19.3308 10.5426 19.6661 10.2366 19.933C9.93064 20.1999 9.56932 20.3334 9.15265 20.3334H5.2464C4.84275 20.3334 4.48468 20.1999 4.17218 19.933C3.85968 19.6661 3.67088 19.3308 3.60577 18.9271L3.07843 15.5677C2.29718 14.9558 1.67869 14.1941 1.22296 13.2826C0.767232 12.3711 0.539368 11.3881 0.539368 10.3334C0.539368 9.27869 0.767232 8.29561 1.22296 7.38416C1.67869 6.4727 2.29718 5.71098 3.07843 5.099L3.60577 1.73962C3.67088 1.33598 3.85643 1.00069 4.16241 0.733765C4.4684 0.466837 4.82973 0.333374 5.2464 0.333374H9.15265ZM9.48468 16.5834C9.1201 16.7136 8.749 16.8145 8.3714 16.8861C7.99379 16.9577 7.60317 16.9935 7.19952 16.9935C6.79588 16.9935 6.40525 16.9577 6.02765 16.8861C5.65004 16.8145 5.27895 16.7136 4.91437 16.5834L5.18781 18.3217C5.20083 18.4128 5.2464 18.4942 5.32452 18.5658C5.40265 18.6374 5.49379 18.6732 5.59796 18.6732H8.80109C8.90525 18.6732 8.9964 18.6374 9.07452 18.5658C9.15265 18.4942 9.19822 18.4128 9.21124 18.3217L9.48468 16.5834ZM8.35187 5.47009C7.44041 5.26176 6.57452 5.2878 5.75421 5.54822C4.9339 5.80863 4.23728 6.2253 3.66437 6.79822C3.09145 7.37113 2.67478 8.06775 2.41437 8.88806C2.15395 9.70837 2.12791 10.5743 2.33624 11.4857C2.53156 12.3972 2.97101 13.1947 3.6546 13.8783C4.3382 14.5619 5.13572 15.0013 6.04718 15.1967C6.95864 15.405 7.82452 15.3789 8.64484 15.1185C9.46515 14.8581 10.1618 14.4414 10.7347 13.8685C11.3076 13.2956 11.7243 12.599 11.9847 11.7787C12.2451 10.9584 12.2711 10.0925 12.0628 9.18103C11.8675 8.26957 11.428 7.47205 10.7444 6.78845C10.0609 6.10486 9.26333 5.66541 8.35187 5.47009ZM7.19952 6.99353C7.4339 6.99353 7.63247 7.07491 7.79523 7.23767C7.95799 7.40043 8.03937 7.599 8.03937 7.83337V9.98181L8.95734 10.9193L9.56281 11.5052C9.71906 11.6745 9.79718 11.8731 9.79718 12.101C9.79718 12.3288 9.71906 12.5274 9.56281 12.6967C9.39353 12.8529 9.19497 12.931 8.9671 12.931C8.73924 12.931 8.54067 12.8529 8.3714 12.6967L7.78546 12.0912L6.61359 10.9193C6.53546 10.8412 6.47361 10.7533 6.42804 10.6556C6.38247 10.558 6.35968 10.4506 6.35968 10.3334V7.83337C6.35968 7.599 6.44106 7.40043 6.60382 7.23767C6.76658 7.07491 6.96515 6.99353 7.19952 6.99353ZM8.80109 1.99353H5.59796C5.49379 1.99353 5.40265 2.02934 5.32452 2.10095C5.2464 2.17257 5.20083 2.25395 5.18781 2.34509L4.91437 4.08337C5.27895 3.95317 5.65004 3.85225 6.02765 3.78064C6.40525 3.70902 6.79588 3.67322 7.19952 3.67322C7.60317 3.67322 7.99379 3.70902 8.3714 3.78064C8.749 3.85225 9.1201 3.95317 9.48468 4.08337L9.21124 2.34509C9.19822 2.25395 9.15265 2.17257 9.07452 2.10095C8.9964 2.02934 8.90525 1.99353 8.80109 1.99353Z" fill="black" fill-opacity="0.56"/>
</svg>
