<svg width="18" height="18" viewBox="0 0 18 18" fill="none" xmlns="http://www.w3.org/2000/svg">
<path id="Vector" d="M14.7191 0.99353C15.4092 0.99353 15.9984 1.23767 16.4866 1.72595C16.9749 2.21423 17.2191 2.80343 17.2191 3.49353V10.1732C17.2191 10.8633 16.9749 11.4525 16.4866 11.9408C15.9984 12.4291 15.4092 12.6732 14.7191 12.6732H12.2191V15.1732C12.2191 15.8633 11.9749 16.4525 11.4866 16.9408C10.9984 17.4291 10.4092 17.6732 9.71906 17.6732H3.03937C2.34926 17.6732 1.76007 17.4291 1.27179 16.9408C0.783508 16.4525 0.539368 15.8633 0.539368 15.1732V8.49353C0.539368 7.80343 0.783508 7.21423 1.27179 6.72595C1.76007 6.23767 2.34926 5.99353 3.03937 5.99353H5.53937V3.49353C5.53937 2.80343 5.78351 2.21423 6.27179 1.72595C6.76007 1.23767 7.34926 0.99353 8.03937 0.99353H14.7191ZM9.71906 7.67322H3.03937C2.81801 7.67322 2.62596 7.7546 2.4632 7.91736C2.30044 8.08012 2.21906 8.27218 2.21906 8.49353V15.1732C2.21906 15.3946 2.30044 15.5866 2.4632 15.7494C2.62596 15.9122 2.81801 15.9935 3.03937 15.9935H9.71906C9.94041 15.9935 10.1325 15.9122 10.2952 15.7494C10.458 15.5866 10.5394 15.3946 10.5394 15.1732V8.49353C10.5394 8.27218 10.458 8.08012 10.2952 7.91736C10.1325 7.7546 9.94041 7.67322 9.71906 7.67322ZM4.71906 12.4584C5.00551 12.4584 5.24965 12.5593 5.45148 12.7611C5.6533 12.9629 5.75421 13.2071 5.75421 13.4935C5.75421 13.78 5.6533 14.0274 5.45148 14.2357C5.24965 14.4441 5.00551 14.5482 4.71906 14.5482C4.4326 14.5482 4.1852 14.4441 3.97687 14.2357C3.76853 14.0274 3.66437 13.78 3.66437 13.4935C3.66437 13.2071 3.76853 12.9629 3.97687 12.7611C4.1852 12.5593 4.4326 12.4584 4.71906 12.4584ZM8.03937 9.11853C8.32583 9.11853 8.57322 9.2227 8.78156 9.43103C8.98989 9.63936 9.09406 9.88676 9.09406 10.1732C9.09406 10.4597 8.98989 10.7038 8.78156 10.9056C8.57322 11.1075 8.32583 11.2084 8.03937 11.2084C7.75291 11.2084 7.50877 11.1075 7.30695 10.9056C7.10512 10.7038 7.00421 10.4597 7.00421 10.1732C7.00421 9.88676 7.10512 9.63936 7.30695 9.43103C7.50877 9.2227 7.75291 9.11853 8.03937 9.11853ZM14.7191 2.67322H8.03937C7.81801 2.67322 7.62596 2.7546 7.4632 2.91736C7.30044 3.08012 7.21906 3.27218 7.21906 3.49353V5.99353H9.71906C10.4092 5.99353 10.9984 6.23767 11.4866 6.72595C11.9749 7.21423 12.2191 7.80343 12.2191 8.49353V10.9935H14.7191C14.9404 10.9935 15.1325 10.9121 15.2952 10.7494C15.458 10.5866 15.5394 10.3946 15.5394 10.1732V3.49353C15.5394 3.27218 15.458 3.08012 15.2952 2.91736C15.1325 2.7546 14.9404 2.67322 14.7191 2.67322ZM13.0394 4.11853C13.3258 4.11853 13.5732 4.2227 13.7816 4.43103C13.9899 4.63936 14.0941 4.88676 14.0941 5.17322C14.0941 5.45968 13.9899 5.70382 13.7816 5.90564C13.5732 6.10746 13.3258 6.20837 13.0394 6.20837C12.7529 6.20837 12.5088 6.10746 12.3069 5.90564C12.1051 5.70382 12.0042 5.45968 12.0042 5.17322C12.0042 4.88676 12.1051 4.63936 12.3069 4.43103C12.5088 4.2227 12.7529 4.11853 13.0394 4.11853Z" fill="black" fill-opacity="0.56"/>
</svg>
