<svg width="18" height="16" viewBox="0 0 18 16" fill="none" xmlns="http://www.w3.org/2000/svg">
<path id="Vector" d="M6.06671 7.57166C6.83494 7.57166 7.55109 7.72139 8.21515 8.02087C8.89223 8.30733 9.48143 8.70121 9.98273 9.20251C10.484 9.70382 10.8779 10.2865 11.1644 10.9506C11.4508 11.6276 11.5941 12.3438 11.5941 13.099V14.1732H15.5394V12.5717C15.5394 11.8164 15.2724 11.1687 14.7386 10.6283C14.2047 10.0879 13.5602 9.81775 12.805 9.81775H12.7659C12.6748 9.81775 12.5934 9.79822 12.5218 9.75916C12.4502 9.72009 12.3948 9.6615 12.3558 9.58337C12.2516 9.4141 12.1409 9.24158 12.0237 9.0658C11.9066 8.89001 11.7829 8.724 11.6526 8.56775C11.6136 8.51567 11.6038 8.46033 11.6234 8.40173C11.6429 8.34314 11.6852 8.30733 11.7503 8.29431C11.9196 8.25525 12.0921 8.2227 12.2679 8.19666C12.4437 8.17061 12.6227 8.15759 12.805 8.15759H12.9808C13.5667 8.18363 14.1201 8.31384 14.6409 8.54822C15.1487 8.79561 15.5947 9.11788 15.9788 9.51501C16.3629 9.91215 16.6657 10.3711 16.887 10.892C17.1084 11.4128 17.2191 11.9727 17.2191 12.5717V14.9935C17.2191 15.2279 17.1377 15.4265 16.9749 15.5892C16.8122 15.752 16.6136 15.8334 16.3792 15.8334H10.7737C10.5394 15.8334 10.3408 15.752 10.178 15.5892C10.0153 15.4265 9.9339 15.2279 9.9339 14.9935V13.099C9.9339 12.5651 9.82973 12.0638 9.6214 11.5951C9.42609 11.1263 9.15265 10.7194 8.80109 10.3744C8.44952 10.0293 8.03937 9.75265 7.57062 9.54431C7.10187 9.349 6.60057 9.25134 6.06671 9.25134C5.53286 9.25134 5.03156 9.349 4.56281 9.54431C4.09406 9.75265 3.68715 10.0293 3.3421 10.3744C2.99705 10.7194 2.72036 11.1263 2.51202 11.5951C2.31671 12.0638 2.21906 12.5651 2.21906 13.099V14.1732H7.4339C7.65525 14.1732 7.85057 14.2546 8.01984 14.4174C8.18911 14.5801 8.27374 14.7722 8.27374 14.9935C8.27374 15.2279 8.18911 15.4265 8.01984 15.5892C7.85057 15.752 7.65525 15.8334 7.4339 15.8334H6.59406H1.37921C1.14484 15.8334 0.946269 15.752 0.783508 15.5892C0.620748 15.4265 0.539368 15.2279 0.539368 14.9935V13.099C0.539368 12.3438 0.689107 11.6276 0.988586 10.9506C1.27504 10.2865 1.66892 9.70382 2.17023 9.20251C2.67153 8.70121 3.25421 8.30733 3.91827 8.02087C4.59536 7.72139 5.3115 7.57166 6.06671 7.57166ZM12.7855 1.47791C13.4756 1.47791 14.0648 1.72205 14.553 2.21033C15.0413 2.69861 15.2855 3.2878 15.2855 3.97791C15.2855 4.66801 15.0413 5.2572 14.553 5.74548C14.0648 6.23376 13.4756 6.47791 12.7855 6.47791C12.0954 6.47791 11.5062 6.23376 11.0179 5.74548C10.5296 5.2572 10.2855 4.66801 10.2855 3.97791C10.2855 3.2878 10.5296 2.69861 11.0179 2.21033C11.5062 1.72205 12.0954 1.47791 12.7855 1.47791ZM6.06671 0.911499C6.75682 0.911499 7.34601 1.15564 7.83429 1.64392C8.32257 2.1322 8.56671 2.72139 8.56671 3.4115C8.56671 4.1016 8.32257 4.6908 7.83429 5.17908C7.34601 5.66736 6.75682 5.9115 6.06671 5.9115C5.37661 5.9115 4.78741 5.66736 4.29913 5.17908C3.81085 4.6908 3.56671 4.1016 3.56671 3.4115C3.56671 2.72139 3.81085 2.1322 4.29913 1.64392C4.78741 1.15564 5.37661 0.911499 6.06671 0.911499ZM12.7855 3.15759C12.5511 3.15759 12.3525 3.23897 12.1898 3.40173C12.027 3.56449 11.9456 3.75655 11.9456 3.97791C11.9456 4.21228 12.027 4.41085 12.1898 4.57361C12.3525 4.73637 12.5511 4.81775 12.7855 4.81775C13.0068 4.81775 13.1989 4.73637 13.3616 4.57361C13.5244 4.41085 13.6058 4.21228 13.6058 3.97791C13.6058 3.75655 13.5244 3.56449 13.3616 3.40173C13.1989 3.23897 13.0068 3.15759 12.7855 3.15759ZM6.06671 2.57166C5.84536 2.57166 5.6533 2.65304 5.49054 2.8158C5.32778 2.97856 5.2464 3.17712 5.2464 3.4115C5.2464 3.64587 5.32778 3.84444 5.49054 4.0072C5.6533 4.16996 5.84536 4.25134 6.06671 4.25134C6.30109 4.25134 6.49965 4.16996 6.66241 4.0072C6.82517 3.84444 6.90656 3.64587 6.90656 3.4115C6.90656 3.17712 6.82517 2.97856 6.66241 2.8158C6.49965 2.65304 6.30109 2.57166 6.06671 2.57166Z" fill="black" fill-opacity="0.56"/>
</svg>
