<svg width="18" height="21" viewBox="0 0 18 21" fill="none" xmlns="http://www.w3.org/2000/svg">
<path id="Vector" d="M5.53937 13.6732V12.8334H12.2191V13.6732H5.53937ZM6.37921 8.65369L6.59406 3.57556C6.6201 3.13285 6.76984 2.7585 7.04327 2.45251C7.31671 2.14652 7.63572 1.99353 8.00031 1.99353H9.75812C10.1227 1.99353 10.4417 2.14652 10.7151 2.45251C10.9886 2.7585 11.1383 3.12634 11.1644 3.55603L11.3792 8.67322H6.37921C6.37921 8.67322 6.37921 8.66996 6.37921 8.66345C6.37921 8.65694 6.37921 8.65369 6.37921 8.65369ZM16.3792 7.83337H15.5394C15.318 7.83337 15.126 7.91475 14.9632 8.07751C14.8004 8.24028 14.7191 8.43884 14.7191 8.67322V11.1732C14.7191 11.3946 14.6377 11.5866 14.4749 11.7494C14.3122 11.9122 14.1136 11.9935 13.8792 11.9935C13.8792 11.7722 13.7978 11.5801 13.6351 11.4174C13.4723 11.2546 13.2737 11.1732 13.0394 11.1732H9.71906V10.3334H11.4573C11.6657 10.3334 11.8675 10.2911 12.0628 10.2064C12.2581 10.1218 12.4339 10.0013 12.5901 9.84509C12.7464 9.67582 12.8636 9.48051 12.9417 9.25916C13.0198 9.0378 13.0524 8.80994 13.0394 8.57556L12.8245 3.47791C12.7855 2.60551 12.4697 1.86332 11.8773 1.25134C11.2848 0.639364 10.5784 0.333374 9.75812 0.333374H8.00031C7.17999 0.333374 6.47361 0.639364 5.88116 1.25134C5.28872 1.86332 4.97296 2.61202 4.9339 3.49744L4.71906 8.57556C4.70603 8.80994 4.73859 9.0378 4.81671 9.25916C4.89484 9.48051 5.01202 9.67582 5.16827 9.84509C5.32452 10.0013 5.50031 10.1218 5.69562 10.2064C5.89093 10.2911 6.09275 10.3334 6.30109 10.3334H8.03937V11.1732H4.71906C4.48468 11.1732 4.28611 11.2546 4.12335 11.4174C3.96059 11.5801 3.87921 11.7722 3.87921 11.9935C3.64484 11.9935 3.44627 11.9122 3.28351 11.7494C3.12075 11.5866 3.03937 11.3946 3.03937 11.1732V8.67322C3.03937 8.43884 2.95799 8.24028 2.79523 8.07751C2.63247 7.91475 2.44041 7.83337 2.21906 7.83337H1.37921C1.14484 7.83337 0.946269 7.91475 0.783508 8.07751C0.620748 8.24028 0.539368 8.43884 0.539368 8.67322C0.539368 8.89457 0.620748 9.08663 0.783508 9.24939C0.946269 9.41215 1.14484 9.49353 1.37921 9.49353V11.1732C1.37921 11.8633 1.62335 12.4525 2.11163 12.9408C2.59991 13.4291 3.18911 13.6732 3.87921 13.6732C3.87921 14.1289 4.04197 14.5196 4.36749 14.8451C4.69301 15.1706 5.08364 15.3334 5.53937 15.3334H8.03937V16.9935H7.21906C6.52895 16.9935 5.93976 17.2377 5.45148 17.726C4.9632 18.2142 4.71906 18.8034 4.71906 19.4935C4.71906 19.7279 4.80044 19.9265 4.9632 20.0892C5.12596 20.252 5.31801 20.3334 5.53937 20.3334C5.77374 20.3334 5.97231 20.252 6.13507 20.0892C6.29783 19.9265 6.37921 19.7279 6.37921 19.4935C6.37921 19.2722 6.46059 19.0801 6.62335 18.9174C6.78611 18.7546 6.98468 18.6732 7.21906 18.6732H10.5394C10.7737 18.6732 10.9723 18.7546 11.1351 18.9174C11.2978 19.0801 11.3792 19.2722 11.3792 19.4935C11.3792 19.7279 11.4606 19.9265 11.6234 20.0892C11.7861 20.252 11.9847 20.3334 12.2191 20.3334C12.4404 20.3334 12.6325 20.252 12.7952 20.0892C12.958 19.9265 13.0394 19.7279 13.0394 19.4935C13.0394 18.8034 12.7952 18.2142 12.3069 17.726C11.8187 17.2377 11.2295 16.9935 10.5394 16.9935H9.71906V15.3334H12.2191C12.6748 15.3334 13.0654 15.1706 13.3909 14.8451C13.7165 14.5196 13.8792 14.1289 13.8792 13.6732C14.5693 13.6732 15.1585 13.4291 15.6468 12.9408C16.1351 12.4525 16.3792 11.8633 16.3792 11.1732V9.49353C16.6136 9.49353 16.8122 9.41215 16.9749 9.24939C17.1377 9.08663 17.2191 8.89457 17.2191 8.67322C17.2191 8.43884 17.1377 8.24028 16.9749 8.07751C16.8122 7.91475 16.6136 7.83337 16.3792 7.83337Z" fill="black" fill-opacity="0.56"/>
</svg>
