<svg width="19" height="13" viewBox="0 0 19 13" fill="none" xmlns="http://www.w3.org/2000/svg">
<path d="M17.1735 10.1849C17.514 10.1849 17.8041 10.3049 18.044 10.5447C18.2839 10.7846 18.4038 11.0825 18.4038 11.4384C18.4038 11.7789 18.2839 12.069 18.044 12.3089C17.8041 12.5488 17.514 12.6687 17.1735 12.6687C16.8331 12.6687 16.539 12.5488 16.2914 12.3089C16.0438 12.069 15.92 11.7789 15.92 11.4384C15.92 11.0825 16.0438 10.7846 16.2914 10.5447C16.539 10.3049 16.8331 10.1849 17.1735 10.1849ZM12.9488 10.4403C13.2273 10.4403 13.4633 10.537 13.6568 10.7304C13.8502 10.9239 13.9469 11.1599 13.9469 11.4384C13.9469 11.7015 13.8502 11.9298 13.6568 12.1232C13.4633 12.3166 13.2273 12.4134 12.9488 12.4134H1.57445C1.29589 12.4134 1.0599 12.3166 0.866455 12.1232C0.673014 11.9298 0.576294 11.7015 0.576294 11.4384C0.576294 11.1599 0.673014 10.9239 0.866455 10.7304C1.0599 10.537 1.29589 10.4403 1.57445 10.4403H12.9488ZM17.1735 5.24058C17.514 5.24058 17.8041 5.36051 18.044 5.60038C18.2839 5.84024 18.4038 6.1304 18.4038 6.47086C18.4038 6.81132 18.2839 7.10534 18.044 7.35295C17.8041 7.60055 17.514 7.72436 17.1735 7.72436C16.8331 7.72436 16.539 7.60055 16.2914 7.35295C16.0438 7.10534 15.92 6.81132 15.92 6.47086C15.92 6.1304 16.0438 5.84024 16.2914 5.60038C16.539 5.36051 16.8331 5.24058 17.1735 5.24058ZM12.9488 5.49592C13.2273 5.49592 13.4633 5.59264 13.6568 5.78608C13.8502 5.97952 13.9469 6.20778 13.9469 6.47086C13.9469 6.74941 13.8502 6.98541 13.6568 7.17885C13.4633 7.37229 13.2273 7.46901 12.9488 7.46901H1.57445C1.29589 7.46901 1.0599 7.37229 0.866455 7.17885C0.673014 6.98541 0.576294 6.74941 0.576294 6.47086C0.576294 6.20778 0.673014 5.97952 0.866455 5.78608C1.0599 5.59264 1.29589 5.49592 1.57445 5.49592H12.9488ZM17.1735 0.29623C17.514 0.29623 17.8041 0.416163 18.044 0.65603C18.2839 0.895897 18.4038 1.18606 18.4038 1.52651C18.4038 1.86697 18.2839 2.15713 18.044 2.397C17.8041 2.63686 17.514 2.7568 17.1735 2.7568C16.8331 2.7568 16.539 2.63686 16.2914 2.397C16.0438 2.15713 15.92 1.86697 15.92 1.52651C15.92 1.18606 16.0438 0.895897 16.2914 0.65603C16.539 0.416163 16.8331 0.29623 17.1735 0.29623ZM12.9488 0.528359C13.2273 0.528359 13.4633 0.625079 13.6568 0.818521C13.8502 1.01196 13.9469 1.24796 13.9469 1.52651C13.9469 1.78959 13.8502 2.02172 13.6568 2.2229C13.4633 2.42408 13.2273 2.52467 12.9488 2.52467H1.57445C1.29589 2.52467 1.0599 2.42408 0.866455 2.2229C0.673014 2.02172 0.576294 1.78959 0.576294 1.52651C0.576294 1.24796 0.673014 1.01196 0.866455 0.818521C1.0599 0.625079 1.29589 0.528359 1.57445 0.528359H12.9488Z" fill="black" fill-opacity="0.56"/>
</svg>
