<svg width="19" height="17" viewBox="0 0 19 17" fill="none" xmlns="http://www.w3.org/2000/svg">
<path d="M10.9743 0.300018H7.4459C6.45548 0.300018 5.52696 0.493458 4.66035 0.880341C3.79373 1.25175 3.03932 1.76243 2.39709 2.41239C1.75487 3.06235 1.24032 3.82064 0.853435 4.68725C0.482029 5.55387 0.296326 6.47465 0.296326 7.44959C0.296326 8.54833 0.528455 9.58131 0.992712 10.5485C1.45697 11.5157 2.10693 12.3398 2.9426 13.0207L2.36227 15.0634C2.2849 15.342 2.28877 15.6167 2.37388 15.8875C2.45899 16.1583 2.60988 16.3788 2.82653 16.549C2.96581 16.6574 3.11282 16.7386 3.26758 16.7928C3.42233 16.8469 3.57708 16.874 3.73183 16.874C3.85564 16.874 3.9717 16.8624 4.08003 16.8392C4.18835 16.816 4.28894 16.7812 4.38179 16.7347L8.56011 14.6224H10.9743C11.9647 14.6224 12.8932 14.4289 13.7598 14.0421C14.6264 13.6706 15.3808 13.16 16.0231 12.51C16.6653 11.86 17.1798 11.1018 17.5667 10.2351C17.9381 9.36852 18.1238 8.44001 18.1238 7.44959C18.1238 6.47465 17.9381 5.55387 17.5667 4.68725C17.1798 3.82064 16.6653 3.06235 16.0231 2.41239C15.3808 1.76243 14.6264 1.25175 13.7598 0.880341C12.8932 0.493458 11.9647 0.300018 10.9743 0.300018Z" fill="black" fill-opacity="0.56"/>
</svg>
