<svg width="16" height="15" viewBox="0 0 16 15" fill="none" xmlns="http://www.w3.org/2000/svg">
<path d="M4.88617 11.0051L4.55414 12.177L7.30804 10.7708C7.36013 10.7447 7.41872 10.7252 7.48383 10.7122C7.54893 10.6991 7.61403 10.6926 7.67914 10.6926H9.9057C10.5047 10.6926 11.0646 10.5754 11.5854 10.3411C12.1192 10.1197 12.5847 9.81047 12.9819 9.41333C13.379 9.01619 13.6883 8.55721 13.9096 8.03638C14.144 7.50252 14.2612 6.93612 14.2612 6.33716C14.2612 5.7382 14.144 5.17179 13.9096 4.63794C13.6883 4.11711 13.379 3.65812 12.9819 3.26099C12.5847 2.86385 12.1192 2.55461 11.5854 2.33325C11.0646 2.09888 10.5047 1.98169 9.9057 1.98169H6.93695C6.33799 1.98169 5.7781 2.09888 5.25726 2.33325C4.72341 2.55461 4.25791 2.86385 3.86078 3.26099C3.46364 3.65812 3.1544 4.11711 2.93304 4.63794C2.69867 5.17179 2.58148 5.7382 2.58148 6.33716C2.58148 7.07935 2.75726 7.77271 3.10883 8.41724C3.46039 9.06177 3.94867 9.58586 4.57367 9.9895C4.74294 10.0937 4.85687 10.2434 4.91547 10.4387C4.97406 10.634 4.96429 10.8228 4.88617 11.0051ZM3.81195 14.2668C3.68174 14.2668 3.55153 14.2441 3.42133 14.1985C3.29112 14.1529 3.16742 14.0846 3.05023 13.9934C2.86794 13.8372 2.74099 13.6451 2.66937 13.4172C2.59776 13.1894 2.5945 12.9648 2.65961 12.7434L3.14789 11.0051C2.44476 10.4452 1.89789 9.75513 1.50726 8.93481C1.11664 8.1145 0.921326 7.24862 0.921326 6.33716C0.921326 5.50383 1.07758 4.72258 1.39008 3.99341C1.7156 3.26424 2.14854 2.62622 2.6889 2.07935C3.22927 1.53247 3.86403 1.10278 4.5932 0.790283C5.32237 0.477783 6.10362 0.321533 6.93695 0.321533H9.9057C10.739 0.321533 11.5203 0.477783 12.2495 0.790283C12.9786 1.10278 13.6134 1.53247 14.1537 2.07935C14.6941 2.62622 15.1271 3.26424 15.4526 3.99341C15.7651 4.72258 15.9213 5.50383 15.9213 6.33716C15.9213 7.17049 15.7651 7.95174 15.4526 8.68091C15.1271 9.41007 14.6941 10.0481 14.1537 10.595C13.6134 11.1418 12.9786 11.5715 12.2495 11.884C11.5203 12.1965 10.739 12.3528 9.9057 12.3528H7.87445L4.35883 14.1301C4.2807 14.1822 4.19607 14.218 4.10492 14.2375C4.01377 14.2571 3.91612 14.2668 3.81195 14.2668Z" fill="black" fill-opacity="0.56"/>
</svg>
