<svg width="13" height="13" viewBox="0 0 13 13" fill="none" xmlns="http://www.w3.org/2000/svg">
<path d="M6.44562 8.34912C6.63312 8.34912 6.79197 8.41423 6.92218 8.54443C7.05239 8.67464 7.11749 8.8335 7.11749 9.021V9.67725H11.7737C11.9612 9.67725 12.1201 9.74235 12.2503 9.87256C12.3805 10.0028 12.4456 10.1616 12.4456 10.3491C12.4456 10.5366 12.3805 10.6955 12.2503 10.8257C12.1201 10.9559 11.9612 11.021 11.7737 11.021H11.1175H7.11749V11.6772C7.11749 11.8647 7.05239 12.0236 6.92218 12.1538C6.79197 12.284 6.63312 12.3491 6.44562 12.3491C6.25812 12.3491 6.09926 12.284 5.96906 12.1538C5.83885 12.0236 5.77374 11.8647 5.77374 11.6772V11.021V9.67725V9.021C5.77374 8.8335 5.83885 8.67464 5.96906 8.54443C6.09926 8.41423 6.25812 8.34912 6.44562 8.34912ZM1.77374 9.67725H4.44562V11.021H1.11749C0.929993 11.021 0.771138 10.9559 0.64093 10.8257C0.510722 10.6955 0.445618 10.5366 0.445618 10.3491C0.445618 10.1616 0.510722 10.0028 0.64093 9.87256C0.771138 9.74235 0.929993 9.67725 1.11749 9.67725H1.77374ZM3.77374 4.34912C3.96124 4.34912 4.1201 4.41423 4.25031 4.54443C4.38051 4.67464 4.44562 4.8335 4.44562 5.021V5.67725V7.021V7.67725C4.44562 7.86475 4.38051 8.0236 4.25031 8.15381C4.1201 8.28402 3.96124 8.34912 3.77374 8.34912C3.59666 8.34912 3.44301 8.28402 3.31281 8.15381C3.1826 8.0236 3.11749 7.86475 3.11749 7.67725V7.021H1.11749C0.929993 7.021 0.771138 6.95589 0.64093 6.82568C0.510722 6.69548 0.445618 6.53662 0.445618 6.34912C0.445618 6.16162 0.510722 6.00277 0.64093 5.87256C0.771138 5.74235 0.929993 5.67725 1.11749 5.67725H1.77374H3.11749V5.021C3.11749 4.8335 3.1826 4.67464 3.31281 4.54443C3.44301 4.41423 3.59666 4.34912 3.77374 4.34912ZM11.7737 5.67725C11.9612 5.67725 12.1201 5.74235 12.2503 5.87256C12.3805 6.00277 12.4456 6.16162 12.4456 6.34912C12.4456 6.53662 12.3805 6.69548 12.2503 6.82568C12.1201 6.95589 11.9612 7.021 11.7737 7.021H11.1175H5.77374V5.67725H11.7737ZM9.11749 0.349121C9.29458 0.349121 9.44822 0.414226 9.57843 0.544434C9.70864 0.674642 9.77374 0.833496 9.77374 1.021V1.67725H11.7737C11.9612 1.67725 12.1201 1.74235 12.2503 1.87256C12.3805 2.00277 12.4456 2.16162 12.4456 2.34912C12.4456 2.53662 12.3805 2.69548 12.2503 2.82568C12.1201 2.95589 11.9612 3.021 11.7737 3.021H11.1175H9.77374V3.67725C9.77374 3.86475 9.70864 4.0236 9.57843 4.15381C9.44822 4.28402 9.29458 4.34912 9.11749 4.34912C8.92999 4.34912 8.77114 4.28402 8.64093 4.15381C8.51072 4.0236 8.44562 3.86475 8.44562 3.67725V3.021V1.67725V1.021C8.44562 0.833496 8.51072 0.674642 8.64093 0.544434C8.77114 0.414226 8.92999 0.349121 9.11749 0.349121ZM1.77374 1.67725H7.11749V3.021H1.11749C0.929993 3.021 0.771138 2.95589 0.64093 2.82568C0.510722 2.69548 0.445618 2.53662 0.445618 2.34912C0.445618 2.16162 0.510722 2.00277 0.64093 1.87256C0.771138 1.74235 0.929993 1.67725 1.11749 1.67725H1.77374Z" fill="black" fill-opacity="0.56"/>
</svg>
