<svg width="16" height="16" viewBox="0 0 16 16" fill="none" xmlns="http://www.w3.org/2000/svg">
<path id="Vector" d="M9.27454 0.833374C9.83443 0.833374 10.2381 0.836629 10.4855 0.84314C10.7329 0.84965 11.0128 0.859416 11.3253 0.872437C11.729 0.898479 12.074 0.940796 12.3605 0.99939C12.6469 1.05798 12.9139 1.13285 13.1613 1.224C13.3956 1.32817 13.6202 1.44535 13.8351 1.57556C14.0499 1.70577 14.2615 1.87504 14.4698 2.08337C14.6912 2.29171 14.867 2.50655 14.9972 2.72791C15.1274 2.94926 15.2446 3.17712 15.3488 3.4115C15.4399 3.65889 15.5148 3.92582 15.5734 4.21228C15.632 4.49874 15.6743 4.84379 15.7003 5.24744C15.7133 5.599 15.7231 5.9115 15.7296 6.18494C15.7361 6.45837 15.7394 6.95968 15.7394 7.68884V8.97791C15.7394 9.70707 15.7361 10.2084 15.7296 10.4818C15.7231 10.7552 15.7133 11.0677 15.7003 11.4193C15.6743 11.823 15.632 12.168 15.5734 12.4545C15.5148 12.7409 15.4399 13.0079 15.3488 13.2552C15.2446 13.4896 15.1274 13.7142 14.9972 13.9291C14.867 14.1439 14.6912 14.3555 14.4698 14.5638C14.2615 14.7852 14.0499 14.961 13.8351 15.0912C13.6202 15.2214 13.3956 15.3386 13.1613 15.4427C12.9139 15.5339 12.6469 15.6088 12.3605 15.6674C12.074 15.726 11.729 15.7683 11.3253 15.7943C10.9868 15.8073 10.6873 15.8171 10.4269 15.8236C10.1665 15.8301 9.71073 15.8334 9.05969 15.8334H7.41907C6.76803 15.8334 6.3123 15.8301 6.05188 15.8236C5.79146 15.8171 5.49198 15.8073 5.15344 15.7943C4.7498 15.7683 4.40474 15.726 4.11829 15.6674C3.83183 15.6088 3.5649 15.5339 3.3175 15.4427C3.07011 15.3386 2.83899 15.2214 2.62415 15.0912C2.4093 14.961 2.19771 14.7852 1.98938 14.5638C1.78105 14.3555 1.60852 14.1439 1.4718 13.9291C1.33508 13.7142 1.22115 13.4896 1.13 13.2552C1.03886 13.0079 0.963989 12.7409 0.905396 12.4545C0.846802 12.168 0.804484 11.823 0.778442 11.4193C0.765422 11.0808 0.755656 10.7813 0.749146 10.5209C0.742635 10.2605 0.73938 9.80473 0.73938 9.15369V7.29822C0.73938 6.73832 0.742635 6.33468 0.749146 6.08728C0.755656 5.83988 0.765422 5.55994 0.778442 5.24744C0.804484 4.84379 0.846802 4.49874 0.905396 4.21228C0.963989 3.92582 1.03886 3.65889 1.13 3.4115C1.22115 3.17712 1.33508 2.94926 1.4718 2.72791C1.60852 2.50655 1.78105 2.29171 1.98938 2.08337C2.19771 1.87504 2.4093 1.70577 2.62415 1.57556C2.83899 1.44535 3.07011 1.32817 3.3175 1.224C3.5649 1.13285 3.83183 1.05798 4.11829 0.99939C4.40474 0.940796 4.7498 0.898479 5.15344 0.872437C5.49198 0.859416 5.79146 0.84965 6.05188 0.84314C6.3123 0.836629 6.76803 0.833374 7.41907 0.833374H9.27454ZM8.23938 4.46619C7.70553 4.46619 7.20422 4.56384 6.73547 4.75916C6.26672 4.96749 5.85657 5.24744 5.505 5.599C5.15344 5.95056 4.87349 6.36072 4.66516 6.82947C4.46985 7.29822 4.37219 7.79952 4.37219 8.33337C4.37219 8.86723 4.46985 9.36853 4.66516 9.83728C4.87349 10.306 5.15344 10.7162 5.505 11.0677C5.85657 11.4193 6.26672 11.6993 6.73547 11.9076C7.20422 12.1029 7.70553 12.2006 8.23938 12.2006C8.77323 12.2006 9.27454 12.1029 9.74329 11.9076C10.212 11.6993 10.6222 11.4193 10.9738 11.0677C11.3253 10.7162 11.6053 10.306 11.8136 9.83728C12.0089 9.36853 12.1066 8.86723 12.1066 8.33337C12.1066 7.79952 12.0089 7.29822 11.8136 6.82947C11.6053 6.36072 11.3253 5.95056 10.9738 5.599C10.6222 5.24744 10.212 4.96749 9.74329 4.75916C9.27454 4.56384 8.77323 4.46619 8.23938 4.46619ZM8.23938 5.83337C8.92948 5.83337 9.51868 6.07751 10.007 6.5658C10.4952 7.05408 10.7394 7.64327 10.7394 8.33337C10.7394 9.02348 10.4952 9.61267 10.007 10.101C9.51868 10.5892 8.92948 10.8334 8.23938 10.8334C7.54928 10.8334 6.96008 10.5892 6.4718 10.101C5.98352 9.61267 5.73938 9.02348 5.73938 8.33337C5.73938 7.64327 5.98352 7.05408 6.4718 6.5658C6.96008 6.07751 7.54928 5.83337 8.23938 5.83337ZM12.7706 3.11853C12.5232 3.11853 12.3116 3.20642 12.1359 3.3822C11.9601 3.55798 11.8722 3.76957 11.8722 4.01697C11.8722 4.27738 11.9601 4.49548 12.1359 4.67126C12.3116 4.84705 12.5232 4.93494 12.7706 4.93494C13.018 4.93494 13.2296 4.84705 13.4054 4.67126C13.5812 4.49548 13.6691 4.27738 13.6691 4.01697C13.6691 3.76957 13.5812 3.55798 13.4054 3.3822C13.2296 3.20642 13.018 3.11853 12.7706 3.11853Z" fill="black" fill-opacity="0.56"/>
</svg>
