<svg width="16" height="16" viewBox="0 0 16 16" fill="none" xmlns="http://www.w3.org/2000/svg">
<path id="Vector" d="M14.6066 0.833374C14.9191 0.833374 15.186 0.940796 15.4073 1.15564C15.6287 1.37048 15.7394 1.62113 15.7394 1.90759V14.7592C15.7003 15.0456 15.5734 15.2963 15.3585 15.5111C15.1437 15.726 14.893 15.8334 14.6066 15.8334H1.87219C1.55969 15.8334 1.29277 15.726 1.07141 15.5111C0.850057 15.2963 0.73938 15.0456 0.73938 14.7592V1.90759C0.778442 1.62113 0.905396 1.37048 1.12024 1.15564C1.33508 0.940796 1.58573 0.833374 1.87219 0.833374H14.6066ZM10.837 6.34119C10.4073 6.30212 10.0102 6.39327 9.64563 6.61462C9.28105 6.83598 8.98808 7.12244 8.76672 7.474V6.47791H6.63782V13.6263H8.84485V10.0521C8.84485 9.58337 8.92623 9.15694 9.08899 8.77283C9.25175 8.38871 9.61959 8.19666 10.1925 8.19666C10.7654 8.19666 11.0975 8.4115 11.1886 8.84119C11.2797 9.27087 11.3253 9.69405 11.3253 10.1107V13.6263H13.5323L13.4738 9.75916C13.4738 8.79561 13.3175 7.98507 13.005 7.32751C12.6925 6.66996 11.9698 6.34119 10.837 6.34119ZM5.21204 6.47791H3.005V13.6263H5.21204V6.47791ZM4.07922 2.90369C3.72766 2.90369 3.42818 3.02738 3.18079 3.27478C2.93339 3.52218 2.80969 3.82817 2.80969 4.19275C2.80969 4.54431 2.93339 4.84705 3.18079 5.10095C3.42818 5.35486 3.72766 5.48181 4.07922 5.48181C4.43079 5.48181 4.73352 5.35486 4.98743 5.10095C5.24133 4.84705 5.36829 4.54431 5.36829 4.19275C5.36829 3.82817 5.24133 3.52218 4.98743 3.27478C4.73352 3.02738 4.43079 2.90369 4.07922 2.90369Z" fill="black" fill-opacity="0.56"/>
</svg>
