<svg width="15" height="18" viewBox="0 0 15 18" fill="none" xmlns="http://www.w3.org/2000/svg">
<path d="M6.67502 0.772947C7.69065 0.642738 8.65419 0.733885 9.56565 1.04638C10.4771 1.34587 11.2746 1.80159 11.9582 2.41357C12.6418 3.02555 13.1854 3.76123 13.5891 4.6206C13.9927 5.47998 14.1946 6.40446 14.1946 7.39404C14.1946 8.6831 13.9081 9.90055 13.3352 11.0464C12.7492 12.1922 12.0917 13.2013 11.3625 14.0737C10.6334 14.9461 9.93674 15.6558 9.27268 16.2026C8.62164 16.7495 8.21799 17.0815 8.06174 17.1987L8.02268 17.2378C7.94456 17.2899 7.86643 17.3289 7.78831 17.355C7.71018 17.381 7.62555 17.394 7.5344 17.394C7.44325 17.394 7.35862 17.381 7.28049 17.355C7.20237 17.3289 7.12424 17.2899 7.04612 17.2378C6.98101 17.1857 6.58388 16.8667 5.85471 16.2808C5.13857 15.6818 4.3801 14.8908 3.57932 13.9077C2.77854 12.9246 2.08518 11.7821 1.49924 10.48C0.913306 9.1779 0.731015 7.79769 0.952369 6.33935C1.05654 5.61019 1.27789 4.9331 1.61643 4.3081C1.95497 3.67008 2.37815 3.10368 2.88596 2.60889C3.39378 2.11409 3.9732 1.71045 4.62424 1.39795C5.26226 1.07243 5.94586 0.864094 6.67502 0.772947ZM12.5344 7.39404C12.5344 6.65185 12.3847 5.95524 12.0852 5.3042C11.7857 4.66618 11.3788 4.11605 10.8645 3.65381C10.3502 3.19157 9.74794 2.84977 9.05784 2.62842C8.38075 2.40706 7.66461 2.34196 6.9094 2.4331C6.37555 2.49821 5.86122 2.64795 5.36643 2.88232C4.88466 3.1167 4.45497 3.41292 4.07737 3.771C3.69976 4.12907 3.38075 4.54248 3.12034 5.01123C2.85992 5.47998 2.69065 5.98128 2.61253 6.51514C2.45628 7.46566 2.5344 8.39014 2.8469 9.28857C3.1594 10.2 3.57607 11.0399 4.0969 11.8081C4.61773 12.5763 5.17112 13.2599 5.75706 13.8589C6.35601 14.4578 6.85732 14.9266 7.26096 15.2651C7.33909 15.3433 7.43023 15.3823 7.5344 15.3823C7.63857 15.3823 7.72971 15.3433 7.80784 15.2651C8.18544 14.9526 8.64117 14.5295 9.17502 13.9956C9.7219 13.4618 10.2427 12.8498 10.7375 12.1597C11.2323 11.4696 11.6555 10.7209 12.0071 9.91357C12.3586 9.09326 12.5344 8.25342 12.5344 7.39404ZM7.5344 4.0542C8.45888 4.0542 9.24664 4.37972 9.89768 5.03076C10.5487 5.6818 10.8742 6.46956 10.8742 7.39404C10.8742 8.3055 10.5487 9.08675 9.89768 9.73779C9.24664 10.3888 8.45888 10.7144 7.5344 10.7144C6.60992 10.7144 5.82216 10.3888 5.17112 9.73779C4.52008 9.08675 4.19456 8.3055 4.19456 7.39404C4.19456 6.46956 4.52008 5.6818 5.17112 5.03076C5.82216 4.37972 6.60992 4.0542 7.5344 4.0542ZM7.5344 5.71435C7.07867 5.71435 6.68805 5.87712 6.36252 6.20264C6.037 6.52816 5.87424 6.92529 5.87424 7.39404C5.87424 7.84977 6.037 8.2404 6.36252 8.56592C6.68805 8.89144 7.07867 9.0542 7.5344 9.0542C7.99013 9.0542 8.38075 8.89144 8.70627 8.56592C9.0318 8.2404 9.19456 7.84977 9.19456 7.39404C9.19456 6.92529 9.0318 6.52816 8.70627 6.20264C8.38075 5.87712 7.99013 5.71435 7.5344 5.71435Z" fill="black" fill-opacity="0.32"/>
</svg>
