<svg width="23" height="14" viewBox="0 0 23 14" fill="none" xmlns="http://www.w3.org/2000/svg">
<path d="M17.2353 5.08006C17.421 5.08006 17.5796 5.1497 17.7112 5.28897C17.8427 5.42825 17.9085 5.59074 17.9085 5.77645C17.9085 5.82287 17.835 6.20588 17.6879 6.92548C17.5409 7.64508 17.1115 8.31439 16.3996 8.9334C15.9508 9.3048 15.4208 9.57175 14.8095 9.73424C14.1983 9.89673 13.5212 9.94703 12.7784 9.88513C12.4225 10.4422 11.9544 11.038 11.374 11.6725C10.7937 12.307 10.0625 12.9724 9.18042 13.6688C9.10304 13.7153 9.02953 13.7501 8.9599 13.7733C8.89026 13.7965 8.81675 13.8081 8.73937 13.8081C8.63105 13.8081 8.53046 13.7888 8.4376 13.7501C8.34475 13.7114 8.26738 13.6456 8.20548 13.5528C8.08167 13.4135 8.03138 13.2471 8.05459 13.0537C8.07781 12.8602 8.16679 12.7016 8.32154 12.5778C9.0334 12.0207 9.63307 11.4907 10.1205 10.9877C10.608 10.4848 11.0142 10.0089 11.3392 9.56015C11.1535 9.48277 10.9794 9.37444 10.8169 9.23517C10.6544 9.09589 10.5268 8.91792 10.4339 8.70127C10.3411 8.50009 10.2946 8.23701 10.2946 7.91203C10.2946 7.58705 10.4494 7.20017 10.7589 6.75139C11.1922 6.1169 11.6023 5.69133 11.9892 5.47468C12.3761 5.25802 12.6546 5.13422 12.8248 5.10327C13.0415 5.05685 13.2465 5.09167 13.44 5.20773C13.6334 5.32379 13.7611 5.49015 13.823 5.70681C13.8694 5.86156 13.9042 6.18267 13.9275 6.67014C13.9507 7.15761 13.8075 7.77275 13.498 8.51557C13.9158 8.51557 14.2911 8.45753 14.6238 8.34147C14.9566 8.22541 15.2467 8.06678 15.4943 7.86561C15.9741 7.47872 16.2642 7.02994 16.3648 6.51926C16.4654 6.00857 16.5157 5.75323 16.5157 5.75323C16.5312 5.55205 16.6047 5.38956 16.7362 5.26576C16.8678 5.14196 17.0341 5.08006 17.2353 5.08006ZM5.9074 5.40504C6.10858 5.40504 6.27494 5.47468 6.40648 5.61395C6.53802 5.75323 6.60379 5.92346 6.60379 6.12464L6.58057 6.14785C6.58057 6.25618 6.54188 6.56568 6.46451 7.07637C6.38713 7.58705 6.19369 8.20606 5.88419 8.9334C5.57468 9.66074 5.11816 10.4422 4.51463 11.2779C3.91109 12.1136 3.07543 12.9183 2.00763 13.692C1.94573 13.7385 1.87996 13.7694 1.81032 13.7849C1.74069 13.8004 1.66718 13.8081 1.5898 13.8081C1.49695 13.8081 1.39636 13.7849 1.28803 13.7385C1.17971 13.692 1.09459 13.6224 1.03269 13.5296C0.924366 13.3748 0.885677 13.2046 0.916628 13.0189C0.947578 12.8332 1.04043 12.6861 1.19518 12.5778C2.15465 11.866 2.9052 11.1386 3.44683 10.3958C3.97299 9.63752 4.36761 8.945 4.63069 8.31826C4.89377 7.69151 5.05626 7.16922 5.11816 6.75139C5.18006 6.33355 5.21101 6.10916 5.21101 6.07821C5.21101 5.89251 5.28065 5.73002 5.41993 5.59074C5.55921 5.45146 5.7217 5.38956 5.9074 5.40504ZM16.8175 11.1154C16.8639 11.3011 16.8368 11.4752 16.7362 11.6377C16.6356 11.8002 16.4847 11.9046 16.2836 11.9511C15.4943 12.1213 14.8405 12.2296 14.3221 12.2761C13.8037 12.3225 13.5058 12.3534 13.4284 12.3689H13.382C13.1962 12.3689 13.0338 12.3031 12.8945 12.1716C12.7552 12.0401 12.6856 11.8737 12.6856 11.6725C12.6701 11.4868 12.7281 11.3243 12.8597 11.185C12.9912 11.0458 13.1498 10.9684 13.3355 10.9529C13.351 10.9529 13.6063 10.9297 14.1016 10.8833C14.5968 10.8369 15.2312 10.7363 16.005 10.5815C16.1907 10.5351 16.3648 10.5622 16.5273 10.6628C16.6898 10.7633 16.7865 10.9142 16.8175 11.1154ZM21.7386 5.08006C21.785 5.15743 21.9669 5.47081 22.2841 6.02018C22.6013 6.56955 22.7367 7.17696 22.6903 7.84239C22.6439 8.63163 22.2918 9.2932 21.6341 9.82709C20.9764 10.361 19.8893 10.8678 18.3727 11.3475L18.1638 11.3708C18.0091 11.3708 17.8698 11.3282 17.746 11.2431C17.6222 11.158 17.5448 11.038 17.5138 10.8833C17.4519 10.6976 17.4636 10.5196 17.5487 10.3494C17.6338 10.1792 17.7692 10.0708 17.9549 10.0244C19.5953 9.49825 20.5625 9.04173 20.8565 8.65484C21.1505 8.26796 21.2975 7.96619 21.2975 7.74954C21.313 7.40909 21.2279 7.05315 21.0422 6.68175C20.8565 6.31034 20.7095 6.055 20.6012 5.91572C20.4928 5.74549 20.4541 5.56753 20.4851 5.38183C20.516 5.19612 20.6089 5.04911 20.7637 4.94078C20.9184 4.81698 21.0925 4.77055 21.2859 4.8015C21.4794 4.83245 21.6303 4.92531 21.7386 5.08006ZM8.87865 0.553545C9.07983 0.56902 9.24232 0.646397 9.36612 0.785673C9.48992 0.924951 9.55182 1.08744 9.55182 1.27314C9.55182 1.31957 9.54409 1.62908 9.52861 2.20166C9.49766 2.75877 9.45897 3.44742 9.41255 4.26761C9.36612 5.0878 9.30422 5.96215 9.22684 6.89066C9.13399 7.83465 9.0334 8.70127 8.92508 9.49051C8.89412 9.66074 8.81288 9.80388 8.68134 9.91995C8.5498 10.036 8.39892 10.094 8.22869 10.094H8.11262C7.92692 10.0631 7.77604 9.97024 7.65997 9.81549C7.54391 9.66074 7.50135 9.48277 7.5323 9.28159C7.64063 8.50783 7.74122 7.65669 7.83407 6.72817C7.91145 5.79966 7.97335 4.92917 8.01977 4.11672C8.0662 3.30427 8.09715 2.62723 8.11262 2.0856C8.14357 1.52849 8.15905 1.24993 8.15905 1.24993C8.17453 1.04875 8.24803 0.882394 8.37957 0.750854C8.51111 0.619314 8.67747 0.553545 8.87865 0.553545ZM12.4999 6.79781C12.407 6.87519 12.3103 6.97578 12.2097 7.09958C12.1091 7.22338 11.9969 7.3704 11.8731 7.54063C11.7648 7.71085 11.699 7.84626 11.6758 7.94685C11.6526 8.04744 11.6487 8.10547 11.6642 8.12095C11.6797 8.16737 11.7261 8.20993 11.8035 8.24862C11.8809 8.28731 11.9582 8.32986 12.0356 8.37629C12.2058 8.03583 12.3219 7.73793 12.3838 7.48259C12.4457 7.22725 12.4844 6.99899 12.4999 6.79781Z" fill="#A62626"/>
</svg>
