<svg width="17" height="19" viewBox="0 0 17 19" fill="none" xmlns="http://www.w3.org/2000/svg">
<path d="M11.6032 10.4924C12.2841 10.4924 12.9263 10.6162 13.5298 10.8638C14.1334 11.1268 14.6595 11.4828 15.1083 11.9316C15.5571 12.3803 15.913 12.9065 16.1761 13.51C16.4237 14.1136 16.5475 14.7558 16.5475 15.4367C16.5475 16.2569 16.2573 16.9572 15.677 17.5375C15.0967 18.1178 14.3964 18.408 13.5763 18.408H3.68756C2.86737 18.408 2.16711 18.1178 1.58679 17.5375C1.00647 16.9572 0.716309 16.2569 0.716309 15.4367C0.716309 14.7558 0.840111 14.1136 1.08771 13.51C1.35079 12.9065 1.70673 12.3803 2.15551 11.9316C2.60429 11.4828 3.13045 11.1268 3.73398 10.8638C4.33752 10.6162 4.97974 10.4924 5.66065 10.4924H11.6032ZM8.6319 0.58046C9.73065 0.58046 10.6669 0.967342 11.4407 1.7411C12.2144 2.51487 12.6013 3.45112 12.6013 4.54986C12.6013 5.63313 12.2144 6.56165 11.4407 7.33541C10.6669 8.10917 9.73065 8.49606 8.6319 8.49606C7.53316 8.49606 6.59691 8.10917 5.82314 7.33541C5.04938 6.56165 4.6625 5.63313 4.6625 4.54986C4.6625 3.45112 5.04938 2.51487 5.82314 1.7411C6.59691 0.967342 7.53316 0.58046 8.6319 0.58046Z" fill="black" fill-opacity="0.56"/>
</svg>
