<svg width="15" height="18" viewBox="0 0 15 18" fill="none" xmlns="http://www.w3.org/2000/svg">
<path id="Vector" d="M6.98938 11.8562C7.05448 11.6609 7.1912 11.5632 7.39954 11.5632C7.60787 11.5632 7.74459 11.6609 7.80969 11.8562L8.66907 15.6648C8.68209 15.7169 8.68534 15.769 8.67883 15.821C8.67232 15.8731 8.64954 15.9252 8.61047 15.9773L7.7511 17.4226C7.67297 17.5528 7.55579 17.6179 7.39954 17.6179C7.24329 17.6179 7.1261 17.5528 7.04797 17.4226L6.1886 15.9773C6.14954 15.9252 6.12675 15.8731 6.12024 15.821C6.11373 15.769 6.11698 15.7169 6.13 15.6648L6.98938 11.8562ZM4.05969 9.06323C4.29407 9.06323 4.49264 9.14461 4.6554 9.30737C4.81816 9.47013 4.89954 9.66219 4.89954 9.88354C4.89954 10.1179 4.81816 10.3165 4.6554 10.4792C4.49264 10.642 4.29407 10.7234 4.05969 10.7234H3.98157C3.74719 10.7234 3.42493 10.8438 3.01477 11.0847C2.60461 11.3256 2.39954 12.0385 2.39954 13.2234C2.39954 13.4578 2.48092 13.6563 2.64368 13.8191C2.80644 13.9819 3.005 14.0632 3.23938 14.0632H4.05969C4.29407 14.0632 4.49264 14.1446 4.6554 14.3074C4.81816 14.4701 4.89954 14.6622 4.89954 14.8835C4.89954 15.1179 4.81816 15.3165 4.6554 15.4792C4.49264 15.642 4.29407 15.7234 4.05969 15.7234H3.23938C2.54928 15.7234 1.96008 15.4792 1.4718 14.991C0.983521 14.5027 0.73938 13.9135 0.73938 13.2234C0.73938 11.9213 1.03235 10.9024 1.61829 10.1667C2.20422 9.43107 3.01803 9.06323 4.05969 9.06323ZM10.7394 9.06323C11.781 9.06323 12.5948 9.43107 13.1808 10.1667C13.7667 10.9024 14.0597 11.9213 14.0597 13.2234C14.0597 13.9135 13.8156 14.5027 13.3273 14.991C12.839 15.4792 12.2498 15.7234 11.5597 15.7234H10.7394C10.505 15.7234 10.3064 15.642 10.1437 15.4792C9.98092 15.3165 9.89954 15.1179 9.89954 14.8835C9.89954 14.6622 9.98092 14.4701 10.1437 14.3074C10.3064 14.1446 10.505 14.0632 10.7394 14.0632H11.5597C11.7941 14.0632 11.9926 13.9819 12.1554 13.8191C12.3182 13.6563 12.3995 13.4578 12.3995 13.2234C12.3995 12.0385 12.1945 11.3256 11.7843 11.0847C11.3741 10.8438 11.0519 10.7234 10.8175 10.7234H10.7394C10.505 10.7234 10.3064 10.642 10.1437 10.4792C9.98092 10.3165 9.89954 10.1179 9.89954 9.88354C9.89954 9.66219 9.98092 9.47013 10.1437 9.30737C10.3064 9.14461 10.505 9.06323 10.7394 9.06323ZM7.39954 8.63354C7.73808 8.63354 8.03105 8.75724 8.27844 9.00464C8.52584 9.25203 8.64954 9.545 8.64954 9.88354C8.64954 10.2351 8.52584 10.5313 8.27844 10.7722C8.03105 11.0131 7.73808 11.1335 7.39954 11.1335C7.06099 11.1335 6.76803 11.0131 6.52063 10.7722C6.27323 10.5313 6.14954 10.2351 6.14954 9.88354C6.14954 9.545 6.27323 9.25203 6.52063 9.00464C6.76803 8.75724 7.06099 8.63354 7.39954 8.63354ZM7.39954 0.723389C8.32402 0.723389 9.11178 1.04891 9.76282 1.69995C10.4139 2.35099 10.7394 3.13875 10.7394 4.06323C10.7394 4.97469 10.4139 5.75594 9.76282 6.40698C9.11178 7.05802 8.32402 7.38354 7.39954 7.38354C6.47506 7.38354 5.6873 7.05802 5.03625 6.40698C4.38521 5.75594 4.05969 4.97469 4.05969 4.06323C4.05969 3.13875 4.38521 2.35099 5.03625 1.69995C5.6873 1.04891 6.47506 0.723389 7.39954 0.723389ZM7.39954 2.38354C6.94381 2.38354 6.55318 2.54631 6.22766 2.87183C5.90214 3.19735 5.73938 3.59448 5.73938 4.06323C5.73938 4.51896 5.90214 4.90959 6.22766 5.23511C6.55318 5.56063 6.94381 5.72339 7.39954 5.72339C7.85527 5.72339 8.24589 5.56063 8.57141 5.23511C8.89693 4.90959 9.05969 4.51896 9.05969 4.06323C9.05969 3.59448 8.89693 3.19735 8.57141 2.87183C8.24589 2.54631 7.85527 2.38354 7.39954 2.38354Z" fill="black" fill-opacity="0.56"/>
</svg>
