<svg width="16" height="17" viewBox="0 0 16 17" fill="none" xmlns="http://www.w3.org/2000/svg">
<path d="M2.05946 7.40839C2.05946 6.17037 2.49664 5.11805 3.37099 4.25144C4.24534 3.38482 5.29379 2.95151 6.51634 2.95151C7.75436 2.95151 8.80667 3.38482 9.67329 4.25144C10.5399 5.11805 10.9732 6.17037 10.9732 7.40839C10.9732 8.63093 10.5399 9.67938 9.67329 10.5537C8.80667 11.4281 7.75436 11.8653 6.51634 11.8653C5.29379 11.8653 4.24534 11.4281 3.37099 10.5537C2.49664 9.67938 2.05946 8.63093 2.05946 7.40839ZM15.0123 14.5115L11.716 11.1921C12.1029 10.6659 12.4085 10.0817 12.6329 9.43952C12.8573 8.79729 12.9695 8.12025 12.9695 7.40839C12.9695 6.5263 12.7993 5.69063 12.4588 4.9014C12.1184 4.12763 11.658 3.44672 11.0777 2.85866C10.4973 2.2706 9.81257 1.80634 9.02333 1.46589C8.24957 1.14091 7.4139 0.978417 6.51634 0.978417C5.63425 0.978417 4.79858 1.14091 4.00934 1.46589C3.23558 1.80634 2.55854 2.2706 1.97822 2.85866C1.39789 3.44672 0.937504 4.12763 0.597048 4.9014C0.256593 5.69063 0.0863647 6.5263 0.0863647 7.40839C0.0863647 8.29048 0.256593 9.12614 0.597048 9.91538C0.937504 10.6891 1.39789 11.3701 1.97822 11.9581C2.55854 12.5462 3.23558 13.0027 4.00934 13.3277C4.79858 13.6681 5.63425 13.8384 6.51634 13.8384C7.2282 13.8384 7.90524 13.73 8.54746 13.5134C9.18969 13.2967 9.77388 12.995 10.3 12.6081L13.6195 15.9043C13.7123 15.9972 13.8207 16.0668 13.9445 16.1132C14.0683 16.1596 14.1921 16.1829 14.3159 16.1829C14.4397 16.1829 14.5635 16.1596 14.6873 16.1132C14.8111 16.0668 14.9194 15.9972 15.0123 15.9043C15.198 15.7031 15.2908 15.4671 15.2908 15.1963C15.2908 14.9255 15.198 14.6972 15.0123 14.5115Z" fill="black" fill-opacity="0.32"/>
</svg>
