<svg width="14" height="16" viewBox="0 0 14 16" fill="none" xmlns="http://www.w3.org/2000/svg">
<path d="M9.31958 9.17322C9.8925 9.17322 10.4329 9.27738 10.9407 9.48572C11.4485 9.70707 11.8912 10.0066 12.2688 10.3842C12.6464 10.7618 12.9459 11.2045 13.1672 11.7123C13.3756 12.2201 13.4797 12.7605 13.4797 13.3334C13.4797 14.0235 13.2356 14.6127 12.7473 15.101C12.259 15.5892 11.6698 15.8334 10.9797 15.8334H2.65942C1.96932 15.8334 1.38013 15.5892 0.891846 15.101C0.403564 14.6127 0.159424 14.0235 0.159424 13.3334C0.159424 12.7605 0.26359 12.2201 0.471924 11.7123C0.693278 11.2045 0.992757 10.7618 1.37036 10.3842C1.74797 10.0066 2.19067 9.70707 2.69849 9.48572C3.2063 9.27738 3.74666 9.17322 4.31958 9.17322H9.31958ZM9.31958 10.8334H4.31958C3.62948 10.8334 3.04028 11.0775 2.552 11.5658C2.06372 12.0541 1.81958 12.6433 1.81958 13.3334C1.81958 13.5677 1.90096 13.7663 2.06372 13.9291C2.22648 14.0918 2.42505 14.1732 2.65942 14.1732H10.9797C11.2141 14.1732 11.4127 14.0918 11.5754 13.9291C11.7382 13.7663 11.8196 13.5677 11.8196 13.3334C11.8196 12.6433 11.5754 12.0541 11.0872 11.5658C10.5989 11.0775 10.0097 10.8334 9.31958 10.8334ZM6.81958 0.833374C7.74406 0.833374 8.53182 1.15889 9.18286 1.80994C9.8339 2.46098 10.1594 3.24874 10.1594 4.17322C10.1594 5.08468 9.8339 5.86593 9.18286 6.51697C8.53182 7.16801 7.74406 7.49353 6.81958 7.49353C5.8951 7.49353 5.10734 7.16801 4.4563 6.51697C3.80526 5.86593 3.47974 5.08468 3.47974 4.17322C3.47974 3.24874 3.80526 2.46098 4.4563 1.80994C5.10734 1.15889 5.8951 0.833374 6.81958 0.833374ZM6.81958 2.49353C6.36385 2.49353 5.97323 2.65629 5.64771 2.98181C5.32218 3.30733 5.15942 3.70447 5.15942 4.17322C5.15942 4.62895 5.32218 5.01957 5.64771 5.34509C5.97323 5.67061 6.36385 5.83337 6.81958 5.83337C7.27531 5.83337 7.66593 5.67061 7.99146 5.34509C8.31698 5.01957 8.47974 4.62895 8.47974 4.17322C8.47974 3.70447 8.31698 3.30733 7.99146 2.98181C7.66593 2.65629 7.27531 2.49353 6.81958 2.49353Z" fill="black" fill-opacity="0.56"/>
</svg>
