<svg width="16" height="13" viewBox="0 0 16 13" fill="none" xmlns="http://www.w3.org/2000/svg">
<path id="Vector" d="M15.7394 1.66541C15.4659 1.78259 15.1795 1.8835 14.88 1.96814C14.5805 2.05278 14.281 2.11462 13.9816 2.15369C14.2941 1.95837 14.5675 1.71423 14.8019 1.42126C15.0363 1.1283 15.212 0.80603 15.3292 0.454468C15.0297 0.623738 14.7172 0.770223 14.3917 0.893921C14.0662 1.01762 13.7277 1.11853 13.3761 1.19666C13.0896 0.897176 12.7544 0.659546 12.3702 0.483765C11.9861 0.307983 11.5727 0.220093 11.13 0.220093C10.2837 0.220093 9.55774 0.519572 8.95227 1.11853C8.3468 1.71749 8.04407 2.44666 8.04407 3.30603C8.04407 3.42322 8.05058 3.54041 8.0636 3.65759C8.07662 3.77478 8.09615 3.89197 8.12219 4.00916C7.48417 3.97009 6.86568 3.86593 6.26672 3.69666C5.66777 3.54041 5.10136 3.32231 4.5675 3.04236C4.03365 2.76241 3.53235 2.43363 3.0636 2.05603C2.59485 1.67843 2.16516 1.25525 1.77454 0.786499C1.64433 1.00785 1.54342 1.24874 1.4718 1.50916C1.40019 1.76957 1.36438 2.04301 1.36438 2.32947C1.36438 2.86332 1.49133 3.35486 1.74524 3.80408C1.99915 4.2533 2.32792 4.61462 2.73157 4.88806C2.48417 4.88806 2.24329 4.85225 2.00891 4.78064C1.77454 4.70902 1.55318 4.62113 1.34485 4.51697V4.55603C1.34485 5.29822 1.57922 5.94926 2.04797 6.50916C2.51672 7.06905 3.10266 7.42061 3.80579 7.56384C3.67558 7.60291 3.54537 7.6322 3.41516 7.65173C3.28495 7.67126 3.14823 7.68103 3.005 7.68103C2.90084 7.68103 2.79993 7.67452 2.70227 7.6615C2.60461 7.64848 2.51021 7.63546 2.41907 7.62244C2.61438 8.23442 2.97571 8.73897 3.50305 9.13611C4.0304 9.53324 4.6261 9.73832 5.29016 9.75134C4.76933 10.168 4.18339 10.4935 3.53235 10.7279C2.88131 10.9623 2.19771 11.0795 1.48157 11.0795C1.35136 11.0795 1.22441 11.0762 1.10071 11.0697C0.97701 11.0632 0.856567 11.0469 0.73938 11.0209C1.41646 11.4636 2.1554 11.8054 2.95618 12.0463C3.75696 12.2872 4.58704 12.4076 5.44641 12.4076C6.86568 12.4076 8.12219 12.1407 9.21594 11.6068C10.2967 11.086 11.2081 10.4056 11.9503 9.5658C12.6925 8.72595 13.2589 7.7852 13.6495 6.74353C14.0271 5.70186 14.2159 4.67322 14.2159 3.65759C14.2159 3.59249 14.2159 3.52738 14.2159 3.46228C14.2159 3.39718 14.2094 3.33207 14.1964 3.26697C14.4959 3.04561 14.7758 2.80147 15.0363 2.53455C15.2967 2.26762 15.531 1.97791 15.7394 1.66541Z" fill="black" fill-opacity="0.56"/>
</svg>
