<?xml version="1.0" standalone="no"?>
<!DOCTYPE svg PUBLIC "-//W3C//DTD SVG 20010904//EN"
 "http://www.w3.org/TR/2001/REC-SVG-20010904/DTD/svg10.dtd">
<svg version="1.0" xmlns="http://www.w3.org/2000/svg"
 width="512.000000pt" height="512.000000pt" viewBox="0 0 512.000000 512.000000"
 preserveAspectRatio="xMidYMid meet">

<g transform="translate(0.000000,512.000000) scale(0.100000,-0.100000)"
fill="#000000" stroke="none">
<path d="M0 2560 l0 -2560 2560 0 2560 0 0 2560 0 2560 -2560 0 -2560 0 0
-2560z m4468 2097 c190 -66 328 -203 400 -395 33 -89 42 -255 18 -354 -54
-232 -242 -420 -474 -474 -99 -24 -265 -15 -354 18 -251 94 -411 307 -425 568
-5 76 -2 112 15 178 34 134 75 205 172 302 94 95 165 136 292 170 103 28 254
23 356 -13z m-1395 -413 c84 -42 137 -139 122 -222 -11 -61 -51 -119 -103
-149 l-47 -28 -1305 -3 c-952 -2 -1319 0 -1358 8 -95 21 -162 103 -162 200 0
89 41 157 115 191 38 18 98 19 1373 19 1206 0 1336 -2 1365 -16z m-1249 -1059
c191 -34 370 -170 454 -345 49 -102 65 -177 64 -290 -3 -236 -131 -443 -342
-554 -93 -49 -178 -69 -290 -70 -158 0 -290 48 -413 149 -67 55 -156 175 -177
239 l-12 36 -362 0 -362 0 -53 26 c-34 17 -62 41 -79 67 -23 35 -27 51 -27
117 0 66 4 82 27 117 17 26 45 50 79 67 l53 26 362 0 362 0 12 34 c14 44 77
142 125 195 77 85 216 160 345 186 85 17 138 17 234 0z m2965 -441 c34 -17 62
-41 79 -67 23 -35 27 -51 27 -117 0 -66 -4 -82 -27 -117 -17 -26 -45 -50 -79
-67 l-53 -26 -896 0 -896 0 -53 26 c-34 17 -62 41 -79 67 -23 35 -27 51 -27
117 0 66 4 82 27 117 17 26 45 50 79 67 l53 26 896 0 896 0 53 -26z m-1209
-1065 c117 -32 185 -73 280 -169 64 -64 93 -102 119 -157 l35 -73 346 0 c388
0 422 -4 477 -62 45 -48 63 -90 63 -148 0 -83 -38 -151 -105 -188 -26 -15 -81
-18 -404 -22 l-374 -5 -41 -80 c-103 -205 -332 -345 -566 -345 -268 0 -515
178 -601 433 -41 122 -42 280 -3 402 64 198 248 370 449 419 92 22 236 20 325
-5z m-1384 -414 c85 -25 144 -105 144 -195 0 -89 -41 -157 -115 -191 -38 -18
-86 -19 -943 -19 -792 0 -907 2 -940 15 -137 58 -166 242 -54 348 59 57 42 56
988 56 739 1 878 -1 920 -14z"/>
</g>
</svg>
