<svg width="14" height="21" viewBox="0 0 14 21" fill="none" xmlns="http://www.w3.org/2000/svg">
<path d="M9.20325 0.5C9.61991 0.5 9.98124 0.633463 10.2872 0.900391C10.5932 1.16732 10.7788 1.5026 10.8439 1.90625L11.3712 5.26562C12.1525 5.8776 12.771 6.63932 13.2267 7.55078C13.6824 8.46224 13.9103 9.44531 13.9103 10.5C13.9103 11.5547 13.6824 12.5378 13.2267 13.4492C12.771 14.3607 12.1525 15.1224 11.3712 15.7344L10.8439 19.0938C10.7788 19.4974 10.5932 19.8327 10.2872 20.0996C9.98124 20.3665 9.61991 20.5 9.20325 20.5H5.297C4.89335 20.5 4.53528 20.3665 4.22278 20.0996C3.91028 19.8327 3.72148 19.4974 3.65637 19.0938L3.12903 15.7344C2.34778 15.1224 1.72929 14.3607 1.27356 13.4492C0.81783 12.5378 0.589966 11.5547 0.589966 10.5C0.589966 9.44531 0.81783 8.46224 1.27356 7.55078C1.72929 6.63932 2.34778 5.8776 3.12903 5.26562L3.65637 1.90625C3.72148 1.5026 3.90702 1.16732 4.21301 0.900391C4.519 0.633463 4.88033 0.5 5.297 0.5H9.20325ZM9.53528 16.75C9.1707 16.8802 8.7996 16.9811 8.422 17.0527C8.04439 17.1243 7.65377 17.1602 7.25012 17.1602C6.84648 17.1602 6.45585 17.1243 6.07825 17.0527C5.70064 16.9811 5.32955 16.8802 4.96497 16.75L5.2384 18.4883C5.25142 18.5794 5.297 18.6608 5.37512 18.7324C5.45325 18.804 5.54439 18.8398 5.64856 18.8398H8.85168C8.95585 18.8398 9.047 18.804 9.12512 18.7324C9.20325 18.6608 9.24882 18.5794 9.26184 18.4883L9.53528 16.75ZM8.40247 5.63672C7.49101 5.42839 6.62512 5.45443 5.80481 5.71484C4.9845 5.97526 4.28788 6.39193 3.71497 6.96484C3.14205 7.53776 2.72538 8.23438 2.46497 9.05469C2.20455 9.875 2.17851 10.7409 2.38684 11.6523C2.58215 12.5638 3.02161 13.3613 3.7052 14.0449C4.38879 14.7285 5.18632 15.168 6.09778 15.3633C7.00924 15.5716 7.87512 15.5456 8.69543 15.2852C9.51575 15.0247 10.2124 14.6081 10.7853 14.0352C11.3582 13.4622 11.7749 12.7656 12.0353 11.9453C12.2957 11.125 12.3217 10.2591 12.1134 9.34766C11.9181 8.4362 11.4786 7.63867 10.795 6.95508C10.1115 6.27148 9.31392 5.83203 8.40247 5.63672ZM7.25012 7.16016C7.4845 7.16016 7.68306 7.24154 7.84583 7.4043C8.00859 7.56706 8.08997 7.76562 8.08997 8V10.1484L9.00793 11.0859L9.6134 11.6719C9.76965 11.8411 9.84778 12.0397 9.84778 12.2676C9.84778 12.4954 9.76965 12.694 9.6134 12.8633C9.44413 13.0195 9.24556 13.0977 9.0177 13.0977C8.78984 13.0977 8.59127 13.0195 8.422 12.8633L7.83606 12.2578L6.66418 11.0859C6.58606 11.0078 6.52421 10.9199 6.47864 10.8223C6.43306 10.7246 6.41028 10.6172 6.41028 10.5V8C6.41028 7.76562 6.49166 7.56706 6.65442 7.4043C6.81718 7.24154 7.01575 7.16016 7.25012 7.16016ZM8.85168 2.16016H5.64856C5.54439 2.16016 5.45325 2.19596 5.37512 2.26758C5.297 2.33919 5.25142 2.42057 5.2384 2.51172L4.96497 4.25C5.32955 4.11979 5.70064 4.01888 6.07825 3.94727C6.45585 3.87565 6.84648 3.83984 7.25012 3.83984C7.65377 3.83984 8.04439 3.87565 8.422 3.94727C8.7996 4.01888 9.1707 4.11979 9.53528 4.25L9.26184 2.51172C9.24882 2.42057 9.20325 2.33919 9.12512 2.26758C9.047 2.19596 8.95585 2.16016 8.85168 2.16016Z" fill="black" fill-opacity="0.56"/>
</svg>
