<svg width="17" height="15" viewBox="0 0 17 15" fill="none" xmlns="http://www.w3.org/2000/svg">
<path d="M14.3497 12.9102H2.66998C2.44863 12.9102 2.25657 12.8288 2.09381 12.666C1.93105 12.5033 1.84967 12.3112 1.84967 12.0898V8.75H3.91998V10C3.91998 10.2344 4.00136 10.4329 4.16412 10.5957C4.32688 10.7585 4.52545 10.8398 4.75983 10.8398C4.9942 10.8398 5.19277 10.7585 5.35553 10.5957C5.51829 10.4329 5.59967 10.2344 5.59967 10V8.75H11.42V10C11.42 10.2344 11.5014 10.4329 11.6641 10.5957C11.8269 10.7585 12.0255 10.8398 12.2598 10.8398C12.4942 10.8398 12.6928 10.7585 12.8555 10.5957C13.0183 10.4329 13.0997 10.2344 13.0997 10V8.75H15.17V12.0898C15.17 12.3112 15.0886 12.5033 14.9258 12.666C14.7631 12.8288 14.571 12.9102 14.3497 12.9102ZM15.17 5V7.08984H1.84967V5C1.84967 4.88281 1.88873 4.78516 1.96686 4.70703C2.04498 4.62891 2.14264 4.58984 2.25983 4.58984H14.7598C14.877 4.58984 14.9747 4.62891 15.0528 4.70703C15.1309 4.78516 15.17 4.88281 15.17 5ZM6.41998 2.08984H10.5997C10.7038 2.08984 10.7982 2.12891 10.8829 2.20703C10.9675 2.28516 11.0098 2.38281 11.0098 2.5V2.91016H6.00983V2.5C6.00983 2.38281 6.04889 2.28516 6.12701 2.20703C6.20514 2.12891 6.3028 2.08984 6.41998 2.08984ZM15.17 2.91016H12.67V2.08984C12.67 1.62109 12.5072 1.22396 12.1817 0.898438C11.8562 0.572917 11.4656 0.410156 11.0098 0.410156H6.00983C5.5541 0.410156 5.16347 0.572917 4.83795 0.898438C4.51243 1.22396 4.34967 1.62109 4.34967 2.08984V2.91016H1.84967C1.38092 2.91016 0.983785 3.07292 0.658264 3.39844C0.332743 3.72396 0.169983 4.12109 0.169983 4.58984V12.0898C0.169983 12.7799 0.414124 13.3691 0.902405 13.8574C1.39069 14.3457 1.97988 14.5898 2.66998 14.5898H14.3497C15.0398 14.5898 15.629 14.3457 16.1172 13.8574C16.6055 13.3691 16.8497 12.7799 16.8497 12.0898V4.58984C16.8497 4.12109 16.6869 3.72396 16.3614 3.39844C16.0359 3.07292 15.6387 2.91016 15.17 2.91016Z" fill="black" fill-opacity="0.56"/>
</svg>
