<svg width="17" height="17" viewBox="0 0 17 17" fill="none" xmlns="http://www.w3.org/2000/svg">
<path d="M14.3197 0.160156C15.0098 0.160156 15.599 0.404297 16.0873 0.892578C16.5756 1.38086 16.8197 1.97005 16.8197 2.66016V9.33984C16.8197 10.0299 16.5756 10.6191 16.0873 11.1074C15.599 11.5957 15.0098 11.8398 14.3197 11.8398H11.8197V14.3398C11.8197 15.0299 11.5756 15.6191 11.0873 16.1074C10.599 16.5957 10.0098 16.8398 9.3197 16.8398H2.64001C1.94991 16.8398 1.36072 16.5957 0.872437 16.1074C0.384155 15.6191 0.140015 15.0299 0.140015 14.3398V7.66016C0.140015 6.97005 0.384155 6.38086 0.872437 5.89258C1.36072 5.4043 1.94991 5.16016 2.64001 5.16016H5.14001V2.66016C5.14001 1.97005 5.38416 1.38086 5.87244 0.892578C6.36072 0.404297 6.94991 0.160156 7.64001 0.160156H14.3197ZM9.3197 6.83984H2.64001C2.41866 6.83984 2.2266 6.92122 2.06384 7.08398C1.90108 7.24675 1.8197 7.4388 1.8197 7.66016V14.3398C1.8197 14.5612 1.90108 14.7533 2.06384 14.916C2.2266 15.0788 2.41866 15.1602 2.64001 15.1602H9.3197C9.54106 15.1602 9.73311 15.0788 9.89587 14.916C10.0586 14.7533 10.14 14.5612 10.14 14.3398V7.66016C10.14 7.4388 10.0586 7.24675 9.89587 7.08398C9.73311 6.92122 9.54106 6.83984 9.3197 6.83984ZM4.3197 11.625C4.60616 11.625 4.8503 11.7259 5.05212 11.9277C5.25395 12.1296 5.35486 12.3737 5.35486 12.6602C5.35486 12.9466 5.25395 13.194 5.05212 13.4023C4.8503 13.6107 4.60616 13.7148 4.3197 13.7148C4.03324 13.7148 3.78585 13.6107 3.57751 13.4023C3.36918 13.194 3.26501 12.9466 3.26501 12.6602C3.26501 12.3737 3.36918 12.1296 3.57751 11.9277C3.78585 11.7259 4.03324 11.625 4.3197 11.625ZM7.64001 8.28516C7.92647 8.28516 8.17387 8.38932 8.3822 8.59766C8.59054 8.80599 8.6947 9.05339 8.6947 9.33984C8.6947 9.6263 8.59054 9.87044 8.3822 10.0723C8.17387 10.2741 7.92647 10.375 7.64001 10.375C7.35356 10.375 7.10942 10.2741 6.90759 10.0723C6.70577 9.87044 6.60486 9.6263 6.60486 9.33984C6.60486 9.05339 6.70577 8.80599 6.90759 8.59766C7.10942 8.38932 7.35356 8.28516 7.64001 8.28516ZM14.3197 1.83984H7.64001C7.41866 1.83984 7.2266 1.92122 7.06384 2.08398C6.90108 2.24675 6.8197 2.4388 6.8197 2.66016V5.16016H9.3197C10.0098 5.16016 10.599 5.4043 11.0873 5.89258C11.5756 6.38086 11.8197 6.97005 11.8197 7.66016V10.1602H14.3197C14.5411 10.1602 14.7331 10.0788 14.8959 9.91602C15.0586 9.75326 15.14 9.5612 15.14 9.33984V2.66016C15.14 2.4388 15.0586 2.24675 14.8959 2.08398C14.7331 1.92122 14.5411 1.83984 14.3197 1.83984ZM12.64 3.28516C12.9265 3.28516 13.1739 3.38932 13.3822 3.59766C13.5905 3.80599 13.6947 4.05339 13.6947 4.33984C13.6947 4.6263 13.5905 4.87044 13.3822 5.07227C13.1739 5.27409 12.9265 5.375 12.64 5.375C12.3536 5.375 12.1094 5.27409 11.9076 5.07227C11.7058 4.87044 11.6049 4.6263 11.6049 4.33984C11.6049 4.05339 11.7058 3.80599 11.9076 3.59766C12.1094 3.38932 12.3536 3.28516 12.64 3.28516Z" fill="black" fill-opacity="0.56"/>
</svg>
