<svg width="18" height="15" viewBox="0 0 18 15" fill="none" xmlns="http://www.w3.org/2000/svg">
<path d="M5.97736 6.73828C6.74558 6.73828 7.46173 6.88802 8.12579 7.1875C8.80288 7.47396 9.39207 7.86784 9.89337 8.36914C10.3947 8.87044 10.7886 9.45312 11.075 10.1172C11.3615 10.7943 11.5047 11.5104 11.5047 12.2656V13.3398H15.45V11.7383C15.45 10.9831 15.1831 10.3353 14.6492 9.79492C14.1154 9.25456 13.4708 8.98438 12.7156 8.98438H12.6766C12.5854 8.98438 12.504 8.96484 12.4324 8.92578C12.3608 8.88672 12.3055 8.82812 12.2664 8.75C12.1623 8.58073 12.0516 8.4082 11.9344 8.23242C11.8172 8.05664 11.6935 7.89062 11.5633 7.73438C11.5242 7.68229 11.5145 7.62695 11.534 7.56836C11.5535 7.50977 11.5958 7.47396 11.6609 7.46094C11.8302 7.42188 12.0027 7.38932 12.1785 7.36328C12.3543 7.33724 12.5333 7.32422 12.7156 7.32422H12.8914C13.4774 7.35026 14.0307 7.48047 14.5516 7.71484C15.0594 7.96224 15.5054 8.28451 15.8895 8.68164C16.2736 9.07878 16.5763 9.53776 16.7977 10.0586C17.019 10.5794 17.1297 11.1393 17.1297 11.7383V14.1602C17.1297 14.3945 17.0483 14.5931 16.8856 14.7559C16.7228 14.9186 16.5242 15 16.2899 15H10.6844C10.45 15 10.2514 14.9186 10.0887 14.7559C9.92592 14.5931 9.84454 14.3945 9.84454 14.1602V12.2656C9.84454 11.7318 9.74038 11.2305 9.53204 10.7617C9.33673 10.293 9.06329 9.88607 8.71173 9.54102C8.36017 9.19596 7.95001 8.91927 7.48126 8.71094C7.01251 8.51562 6.51121 8.41797 5.97736 8.41797C5.4435 8.41797 4.9422 8.51562 4.47345 8.71094C4.0047 8.91927 3.5978 9.19596 3.25275 9.54102C2.90769 9.88607 2.631 10.293 2.42267 10.7617C2.22736 11.2305 2.1297 11.7318 2.1297 12.2656V13.3398H7.34454C7.5659 13.3398 7.76121 13.4212 7.93048 13.584C8.09975 13.7467 8.18439 13.9388 8.18439 14.1602C8.18439 14.3945 8.09975 14.5931 7.93048 14.7559C7.76121 14.9186 7.5659 15 7.34454 15H6.5047H1.28986C1.05548 15 0.856913 14.9186 0.694153 14.7559C0.531392 14.5931 0.450012 14.3945 0.450012 14.1602V12.2656C0.450012 11.5104 0.599752 10.7943 0.899231 10.1172C1.18569 9.45312 1.57957 8.87044 2.08087 8.36914C2.58217 7.86784 3.16486 7.47396 3.82892 7.1875C4.506 6.88802 5.22215 6.73828 5.97736 6.73828ZM12.6961 0.644531C13.3862 0.644531 13.9754 0.888672 14.4637 1.37695C14.952 1.86523 15.1961 2.45443 15.1961 3.14453C15.1961 3.83464 14.952 4.42383 14.4637 4.91211C13.9754 5.40039 13.3862 5.64453 12.6961 5.64453C12.006 5.64453 11.4168 5.40039 10.9285 4.91211C10.4402 4.42383 10.1961 3.83464 10.1961 3.14453C10.1961 2.45443 10.4402 1.86523 10.9285 1.37695C11.4168 0.888672 12.006 0.644531 12.6961 0.644531ZM5.97736 0.078125C6.66746 0.078125 7.25665 0.322266 7.74493 0.810547C8.23322 1.29883 8.47736 1.88802 8.47736 2.57812C8.47736 3.26823 8.23322 3.85742 7.74493 4.3457C7.25665 4.83398 6.66746 5.07812 5.97736 5.07812C5.28725 5.07812 4.69806 4.83398 4.20978 4.3457C3.7215 3.85742 3.47736 3.26823 3.47736 2.57812C3.47736 1.88802 3.7215 1.29883 4.20978 0.810547C4.69806 0.322266 5.28725 0.078125 5.97736 0.078125ZM12.6961 2.32422C12.4617 2.32422 12.2632 2.4056 12.1004 2.56836C11.9376 2.73112 11.8563 2.92318 11.8563 3.14453C11.8563 3.37891 11.9376 3.57747 12.1004 3.74023C12.2632 3.903 12.4617 3.98438 12.6961 3.98438C12.9175 3.98438 13.1095 3.903 13.2723 3.74023C13.435 3.57747 13.5164 3.37891 13.5164 3.14453C13.5164 2.92318 13.435 2.73112 13.2723 2.56836C13.1095 2.4056 12.9175 2.32422 12.6961 2.32422ZM5.97736 1.73828C5.756 1.73828 5.56394 1.81966 5.40118 1.98242C5.23842 2.14518 5.15704 2.34375 5.15704 2.57812C5.15704 2.8125 5.23842 3.01107 5.40118 3.17383C5.56394 3.33659 5.756 3.41797 5.97736 3.41797C6.21173 3.41797 6.4103 3.33659 6.57306 3.17383C6.73582 3.01107 6.8172 2.8125 6.8172 2.57812C6.8172 2.34375 6.73582 2.14518 6.57306 1.98242C6.4103 1.81966 6.21173 1.73828 5.97736 1.73828Z" fill="black" fill-opacity="0.56"/>
</svg>
