<svg width="14" height="15" viewBox="0 0 14 15" fill="none" xmlns="http://www.w3.org/2000/svg">
<path d="M9.58017 8.33984C10.1531 8.33984 10.6935 8.44401 11.2013 8.65234C11.7091 8.8737 12.1518 9.17318 12.5294 9.55078C12.907 9.92839 13.2065 10.3711 13.4278 10.8789C13.6362 11.3867 13.7403 11.9271 13.7403 12.5C13.7403 13.1901 13.4962 13.7793 13.0079 14.2676C12.5196 14.7559 11.9304 15 11.2403 15H2.92001C2.22991 15 1.64072 14.7559 1.15244 14.2676C0.664154 13.7793 0.420013 13.1901 0.420013 12.5C0.420013 11.9271 0.52418 11.3867 0.732513 10.8789C0.953868 10.3711 1.25335 9.92839 1.63095 9.55078C2.00856 9.17318 2.45126 8.8737 2.95908 8.65234C3.46689 8.44401 4.00725 8.33984 4.58017 8.33984H9.58017ZM9.58017 10H4.58017C3.89007 10 3.30087 10.2441 2.81259 10.7324C2.32431 11.2207 2.08017 11.8099 2.08017 12.5C2.08017 12.7344 2.16155 12.9329 2.32431 13.0957C2.48707 13.2585 2.68564 13.3398 2.92001 13.3398H11.2403C11.4747 13.3398 11.6733 13.2585 11.836 13.0957C11.9988 12.9329 12.0802 12.7344 12.0802 12.5C12.0802 11.8099 11.836 11.2207 11.3477 10.7324C10.8595 10.2441 10.2703 10 9.58017 10ZM7.08017 0C8.00465 0 8.79241 0.325521 9.44345 0.976562C10.0945 1.6276 10.42 2.41536 10.42 3.33984C10.42 4.2513 10.0945 5.03255 9.44345 5.68359C8.79241 6.33464 8.00465 6.66016 7.08017 6.66016C6.15569 6.66016 5.36793 6.33464 4.71689 5.68359C4.06585 5.03255 3.74033 4.2513 3.74033 3.33984C3.74033 2.41536 4.06585 1.6276 4.71689 0.976562C5.36793 0.325521 6.15569 0 7.08017 0ZM7.08017 1.66016C6.62444 1.66016 6.23382 1.82292 5.90829 2.14844C5.58277 2.47396 5.42001 2.87109 5.42001 3.33984C5.42001 3.79557 5.58277 4.1862 5.90829 4.51172C6.23382 4.83724 6.62444 5 7.08017 5C7.5359 5 7.92652 4.83724 8.25204 4.51172C8.57757 4.1862 8.74033 3.79557 8.74033 3.33984C8.74033 2.87109 8.57757 2.47396 8.25204 2.14844C7.92652 1.82292 7.5359 1.66016 7.08017 1.66016Z" fill="black" fill-opacity="0.56"/>
</svg>
