<svg width="16" height="15" viewBox="0 0 16 15" fill="none" xmlns="http://www.w3.org/2000/svg">
<path d="M4.40485 11.2109L4.07281 12.3828L6.82672 10.9766C6.8788 10.9505 6.9374 10.931 7.0025 10.918C7.06761 10.9049 7.13271 10.8984 7.19781 10.8984H9.42438C10.0233 10.8984 10.5832 10.7812 11.1041 10.5469C11.6379 10.3255 12.1034 10.0163 12.5005 9.61914C12.8977 9.22201 13.2069 8.76302 13.4283 8.24219C13.6627 7.70833 13.7798 7.14193 13.7798 6.54297C13.7798 5.94401 13.6627 5.3776 13.4283 4.84375C13.2069 4.32292 12.8977 3.86393 12.5005 3.4668C12.1034 3.06966 11.6379 2.76042 11.1041 2.53906C10.5832 2.30469 10.0233 2.1875 9.42438 2.1875H6.45563C5.85667 2.1875 5.29677 2.30469 4.77594 2.53906C4.24209 2.76042 3.77659 3.06966 3.37946 3.4668C2.98232 3.86393 2.67308 4.32292 2.45172 4.84375C2.21735 5.3776 2.10016 5.94401 2.10016 6.54297C2.10016 7.28516 2.27594 7.97852 2.6275 8.62305C2.97906 9.26758 3.46735 9.79167 4.09235 10.1953C4.26162 10.2995 4.37555 10.4492 4.43414 10.6445C4.49274 10.8398 4.48297 11.0286 4.40485 11.2109ZM3.33063 14.4727C3.20042 14.4727 3.07021 14.4499 2.94 14.4043C2.80979 14.3587 2.6861 14.2904 2.56891 14.1992C2.38662 14.043 2.25966 13.8509 2.18805 13.623C2.11643 13.3952 2.11318 13.1706 2.17828 12.9492L2.66656 11.2109C1.96344 10.651 1.41656 9.96094 1.02594 9.14062C0.635315 8.32031 0.440002 7.45443 0.440002 6.54297C0.440002 5.70964 0.596252 4.92839 0.908752 4.19922C1.23427 3.47005 1.66722 2.83203 2.20758 2.28516C2.74795 1.73828 3.38271 1.30859 4.11188 0.996094C4.84104 0.683594 5.62229 0.527344 6.45563 0.527344H9.42438C10.2577 0.527344 11.039 0.683594 11.7681 0.996094C12.4973 1.30859 13.1321 1.73828 13.6724 2.28516C14.2128 2.83203 14.6457 3.47005 14.9713 4.19922C15.2838 4.92839 15.44 5.70964 15.44 6.54297C15.44 7.3763 15.2838 8.15755 14.9713 8.88672C14.6457 9.61589 14.2128 10.2539 13.6724 10.8008C13.1321 11.3477 12.4973 11.7773 11.7681 12.0898C11.039 12.4023 10.2577 12.5586 9.42438 12.5586H7.39313L3.8775 14.3359C3.79938 14.388 3.71474 14.4238 3.6236 14.4434C3.53245 14.4629 3.43479 14.4727 3.33063 14.4727Z" fill="black" fill-opacity="0.56"/>
</svg>
