<svg width="14" height="14" viewBox="0 0 14 14" fill="none" xmlns="http://www.w3.org/2000/svg">
<path d="M2.30017 6.25C2.30017 5.20833 2.66801 4.32292 3.40369 3.59375C4.13936 2.86458 5.02152 2.5 6.05017 2.5C7.09184 2.5 7.97725 2.86458 8.70642 3.59375C9.43559 4.32292 9.80017 5.20833 9.80017 6.25C9.80017 7.27865 9.43559 8.16081 8.70642 8.89648C7.97725 9.63216 7.09184 10 6.05017 10C5.02152 10 4.13936 9.63216 3.40369 8.89648C2.66801 8.16081 2.30017 7.27865 2.30017 6.25ZM13.1986 12.2266L10.4252 9.43359C10.7507 8.99089 11.0079 8.49935 11.1967 7.95898C11.3855 7.41862 11.4799 6.84896 11.4799 6.25C11.4799 5.50781 11.3366 4.80469 11.0502 4.14062C10.7637 3.48958 10.3763 2.91667 9.88806 2.42188C9.39978 1.92708 8.82361 1.53646 8.15955 1.25C7.5085 0.976562 6.80538 0.839844 6.05017 0.839844C5.30798 0.839844 4.60486 0.976562 3.9408 1.25C3.28975 1.53646 2.72009 1.92708 2.23181 2.42188C1.74353 2.91667 1.35616 3.48958 1.0697 4.14062C0.783244 4.80469 0.640015 5.50781 0.640015 6.25C0.640015 6.99219 0.783244 7.69531 1.0697 8.35938C1.35616 9.01042 1.74353 9.58333 2.23181 10.0781C2.72009 10.5729 3.28975 10.957 3.9408 11.2305C4.60486 11.5169 5.30798 11.6602 6.05017 11.6602C6.64913 11.6602 7.21879 11.569 7.75916 11.3867C8.29952 11.2044 8.79106 10.9505 9.23376 10.625L12.0267 13.3984C12.1049 13.4766 12.196 13.5352 12.3002 13.5742C12.4043 13.6133 12.5085 13.6328 12.6127 13.6328C12.7168 13.6328 12.821 13.6133 12.9252 13.5742C13.0293 13.5352 13.1205 13.4766 13.1986 13.3984C13.3549 13.2292 13.433 13.0306 13.433 12.8027C13.433 12.5749 13.3549 12.3828 13.1986 12.2266Z" fill="black" fill-opacity="0.56"/>
</svg>
