<svg width="14" height="17" viewBox="0 0 14 17" fill="none" xmlns="http://www.w3.org/2000/svg">
<path d="M5.8137 0.218748C6.82932 0.0885391 7.79286 0.179686 8.70432 0.492186C9.61578 0.791666 10.4133 1.24739 11.0969 1.85937C11.7805 2.47135 12.3241 3.20703 12.7278 4.06641C13.1314 4.92578 13.3332 5.85026 13.3332 6.83984C13.3332 8.12891 13.0468 9.34635 12.4739 10.4922C11.8879 11.638 11.2304 12.6471 10.5012 13.5195C9.77203 14.3919 9.07542 15.1016 8.41135 15.6484C7.76031 16.1953 7.35667 16.5273 7.20042 16.6445L7.16135 16.6836C7.08323 16.7357 7.0051 16.7747 6.92698 16.8008C6.84885 16.8268 6.76422 16.8398 6.67307 16.8398C6.58193 16.8398 6.49729 16.8268 6.41917 16.8008C6.34104 16.7747 6.26292 16.7357 6.18479 16.6836C6.11969 16.6315 5.72255 16.3125 4.99338 15.7266C4.27724 15.1276 3.51877 14.3366 2.71799 13.3535C1.91721 12.3704 1.22385 11.2279 0.637916 9.92578C0.0519783 8.6237 -0.130313 7.24349 0.0910408 5.78516C0.195207 5.05599 0.416562 4.37891 0.755103 3.75391C1.09364 3.11588 1.51682 2.54948 2.02463 2.05469C2.53245 1.55989 3.11187 1.15625 3.76292 0.843748C4.40094 0.518229 5.08453 0.309895 5.8137 0.218748ZM11.6731 6.83984C11.6731 6.09766 11.5233 5.40104 11.2239 4.75C10.9244 4.11198 10.5175 3.56185 10.0032 3.09961C9.48883 2.63737 8.88661 2.29557 8.19651 2.07422C7.51943 1.85286 6.80328 1.78776 6.04807 1.87891C5.51422 1.94401 4.9999 2.09375 4.5051 2.32812C4.02333 2.5625 3.59364 2.85872 3.21604 3.2168C2.83844 3.57487 2.51943 3.98828 2.25901 4.45703C1.99859 4.92578 1.82932 5.42708 1.7512 5.96094C1.59495 6.91146 1.67307 7.83594 1.98557 8.73437C2.29807 9.64583 2.71474 10.4857 3.23557 11.2539C3.75641 12.0221 4.30979 12.7057 4.89573 13.3047C5.49469 13.9036 5.99599 14.3724 6.39963 14.7109C6.47776 14.7891 6.56891 14.8281 6.67307 14.8281C6.77724 14.8281 6.86838 14.7891 6.94651 14.7109C7.32411 14.3984 7.77984 13.9753 8.3137 13.4414C8.86057 12.9076 9.3814 12.2956 9.8762 11.6055C10.371 10.9154 10.7942 10.1667 11.1457 9.35937C11.4973 8.53906 11.6731 7.69922 11.6731 6.83984ZM6.67307 3.5C7.59755 3.5 8.38531 3.82552 9.03635 4.47656C9.6874 5.1276 10.0129 5.91536 10.0129 6.83984C10.0129 7.7513 9.6874 8.53255 9.03635 9.18359C8.38531 9.83463 7.59755 10.1602 6.67307 10.1602C5.74859 10.1602 4.96083 9.83463 4.30979 9.18359C3.65875 8.53255 3.33323 7.7513 3.33323 6.83984C3.33323 5.91536 3.65875 5.1276 4.30979 4.47656C4.96083 3.82552 5.74859 3.5 6.67307 3.5ZM6.67307 5.16016C6.21734 5.16016 5.82672 5.32292 5.5012 5.64844C5.17568 5.97396 5.01292 6.37109 5.01292 6.83984C5.01292 7.29557 5.17568 7.6862 5.5012 8.01172C5.82672 8.33724 6.21734 8.5 6.67307 8.5C7.1288 8.5 7.51943 8.33724 7.84495 8.01172C8.17047 7.6862 8.33323 7.29557 8.33323 6.83984C8.33323 6.37109 8.17047 5.97396 7.84495 5.64844C7.51943 5.32292 7.1288 5.16016 6.67307 5.16016Z" fill="black" fill-opacity="0.56"/>
</svg>
