<svg width="19" height="19" viewBox="0 0 19 19" fill="none" xmlns="http://www.w3.org/2000/svg">
<path d="M17.5599 0.539062C17.6901 0.5 17.8204 0.490234 17.9506 0.509766C18.0808 0.529297 18.2045 0.578125 18.3217 0.65625C18.4258 0.734375 18.5105 0.832031 18.5756 0.949219C18.6407 1.06641 18.6732 1.19662 18.6732 1.33984V18C18.6732 18.2344 18.5918 18.4329 18.4291 18.5957C18.2663 18.7585 18.0677 18.8398 17.8334 18.8398H2.87244C2.65108 18.8398 2.45903 18.7585 2.29626 18.5957C2.1335 18.4329 2.05212 18.2344 2.05212 18V12.9219C2.00004 12.9479 1.9447 12.9674 1.88611 12.9805C1.82751 12.9935 1.77218 13 1.72009 13C1.58988 13 1.46293 12.9707 1.33923 12.9121C1.21554 12.8535 1.11462 12.7656 1.0365 12.6484C0.906291 12.4661 0.857463 12.2611 0.890015 12.0332C0.922567 11.8053 1.0365 11.6263 1.23181 11.4961L7.05212 7.31641C7.19535 7.21224 7.35811 7.16016 7.54041 7.16016C7.7227 7.16016 7.88546 7.21224 8.02869 7.31641L9.70837 8.52734V3.83984C9.70837 3.65755 9.7572 3.49479 9.85486 3.35156C9.95251 3.20833 10.086 3.10417 10.2552 3.03906L17.5599 0.539062ZM7.54041 9.01562L3.71228 11.7695V17.1602H11.3685V11.7695L7.54041 9.01562ZM16.9935 2.49219L11.3685 4.42578V9.71875L13.849 11.4961C14.0313 11.6263 14.142 11.8053 14.181 12.0332C14.2201 12.2611 14.1745 12.4661 14.0443 12.6484C13.9662 12.7656 13.8653 12.8535 13.7416 12.9121C13.6179 12.9707 13.4909 13 13.3607 13C13.3086 13 13.2533 12.9935 13.1947 12.9805C13.1361 12.9674 13.0808 12.9479 13.0287 12.9219V17.1602H16.9935V2.49219ZM9.43494 13.3125C9.65629 13.3125 9.84835 13.3939 10.0111 13.5566C10.1739 13.7194 10.2552 13.918 10.2552 14.1523C10.2552 14.3737 10.1739 14.5658 10.0111 14.7285C9.84835 14.8913 9.65629 14.9727 9.43494 14.9727H5.68494C5.45056 14.9727 5.25525 14.8913 5.099 14.7285C4.94275 14.5658 4.86462 14.3737 4.86462 14.1523C4.86462 13.918 4.94275 13.7194 5.099 13.5566C5.25525 13.3939 5.45056 13.3125 5.68494 13.3125H9.43494Z" fill="black" fill-opacity="0.56"/>
</svg>
