<svg width="18" height="21" viewBox="0 0 18 21" fill="none" xmlns="http://www.w3.org/2000/svg">
<path d="M5.85999 13.8398V13H12.5397V13.8398H5.85999ZM6.69983 8.82031L6.91467 3.74219C6.94071 3.29948 7.09045 2.92513 7.36389 2.61914C7.63733 2.31315 7.95634 2.16016 8.32092 2.16016H10.0787C10.4433 2.16016 10.7623 2.31315 11.0358 2.61914C11.3092 2.92513 11.4589 3.29297 11.485 3.72266L11.6998 8.83984H6.69983C6.69983 8.83984 6.69983 8.83659 6.69983 8.83008C6.69983 8.82357 6.69983 8.82031 6.69983 8.82031ZM16.6998 8H15.86C15.6386 8 15.4466 8.08138 15.2838 8.24414C15.1211 8.4069 15.0397 8.60547 15.0397 8.83984V11.3398C15.0397 11.5612 14.9583 11.7533 14.7955 11.916C14.6328 12.0788 14.4342 12.1602 14.1998 12.1602C14.1998 11.9388 14.1184 11.7467 13.9557 11.584C13.7929 11.4212 13.5944 11.3398 13.36 11.3398H10.0397V10.5H11.778C11.9863 10.5 12.1881 10.4577 12.3834 10.373C12.5787 10.2884 12.7545 10.168 12.9108 10.0117C13.067 9.84245 13.1842 9.64714 13.2623 9.42578C13.3405 9.20443 13.373 8.97656 13.36 8.74219L13.1451 3.64453C13.1061 2.77213 12.7903 2.02995 12.1979 1.41797C11.6054 0.80599 10.899 0.5 10.0787 0.5H8.32092C7.50061 0.5 6.79423 0.80599 6.20178 1.41797C5.60933 2.02995 5.29358 2.77865 5.25452 3.66406L5.03967 8.74219C5.02665 8.97656 5.0592 9.20443 5.13733 9.42578C5.21545 9.64714 5.33264 9.84245 5.48889 10.0117C5.64514 10.168 5.82092 10.2884 6.01624 10.373C6.21155 10.4577 6.41337 10.5 6.6217 10.5H8.35999V11.3398H5.03967C4.8053 11.3398 4.60673 11.4212 4.44397 11.584C4.28121 11.7467 4.19983 11.9388 4.19983 12.1602C3.96545 12.1602 3.76689 12.0788 3.60413 11.916C3.44137 11.7533 3.35999 11.5612 3.35999 11.3398V8.83984C3.35999 8.60547 3.27861 8.4069 3.11584 8.24414C2.95308 8.08138 2.76103 8 2.53967 8H1.69983C1.46545 8 1.26689 8.08138 1.10413 8.24414C0.941366 8.4069 0.859985 8.60547 0.859985 8.83984C0.859985 9.0612 0.941366 9.25325 1.10413 9.41602C1.26689 9.57878 1.46545 9.66016 1.69983 9.66016V11.3398C1.69983 12.0299 1.94397 12.6191 2.43225 13.1074C2.92053 13.5957 3.50972 13.8398 4.19983 13.8398C4.19983 14.2956 4.36259 14.6862 4.68811 15.0117C5.01363 15.3372 5.40426 15.5 5.85999 15.5H8.35999V17.1602H7.53967C6.84957 17.1602 6.26038 17.4043 5.77209 17.8926C5.28381 18.3809 5.03967 18.9701 5.03967 19.6602C5.03967 19.8945 5.12105 20.0931 5.28381 20.2559C5.44657 20.4186 5.63863 20.5 5.85999 20.5C6.09436 20.5 6.29293 20.4186 6.45569 20.2559C6.61845 20.0931 6.69983 19.8945 6.69983 19.6602C6.69983 19.4388 6.78121 19.2467 6.94397 19.084C7.10673 18.9212 7.3053 18.8398 7.53967 18.8398H10.86C11.0944 18.8398 11.2929 18.9212 11.4557 19.084C11.6184 19.2467 11.6998 19.4388 11.6998 19.6602C11.6998 19.8945 11.7812 20.0931 11.944 20.2559C12.1067 20.4186 12.3053 20.5 12.5397 20.5C12.761 20.5 12.9531 20.4186 13.1158 20.2559C13.2786 20.0931 13.36 19.8945 13.36 19.6602C13.36 18.9701 13.1158 18.3809 12.6276 17.8926C12.1393 17.4043 11.5501 17.1602 10.86 17.1602H10.0397V15.5H12.5397C12.9954 15.5 13.386 15.3372 13.7115 15.0117C14.0371 14.6862 14.1998 14.2956 14.1998 13.8398C14.8899 13.8398 15.4791 13.5957 15.9674 13.1074C16.4557 12.6191 16.6998 12.0299 16.6998 11.3398V9.66016C16.9342 9.66016 17.1328 9.57878 17.2955 9.41602C17.4583 9.25325 17.5397 9.0612 17.5397 8.83984C17.5397 8.60547 17.4583 8.4069 17.2955 8.24414C17.1328 8.08138 16.9342 8 16.6998 8Z" fill="black" fill-opacity="0.56"/>
</svg>
