<svg width="13" height="19" viewBox="0 0 13 19" fill="none" xmlns="http://www.w3.org/2000/svg">
<path d="M10.48 10.75C10.48 10.8672 10.4409 10.9648 10.3628 11.043C10.2847 11.1211 10.187 11.1602 10.0698 11.1602H7.47217H5.28467H2.56982C2.45264 11.1602 2.35498 11.1211 2.27686 11.043C2.19873 10.9648 2.15967 10.8672 2.15967 10.75V8.66016H10.48V10.75ZM6.90576 16.4727C6.90576 16.6159 6.85368 16.7396 6.74951 16.8438C6.64535 16.9479 6.51514 17 6.35889 17C6.21566 17 6.09196 16.9512 5.98779 16.8535C5.88363 16.7559 5.82503 16.6549 5.81201 16.5508L6.06592 12.8398H6.69092L6.90576 16.4727ZM2.97998 2H3.81982V3.66016C3.81982 3.89453 3.9012 4.0931 4.06396 4.25586C4.22673 4.41862 4.42529 4.5 4.65967 4.5C4.88102 4.5 5.07308 4.41862 5.23584 4.25586C5.3986 4.0931 5.47998 3.89453 5.47998 3.66016V2.625C5.47998 2.45573 5.54183 2.30924 5.66553 2.18555C5.78923 2.06185 5.93571 2 6.10498 2C6.28727 2 6.43701 2.06185 6.5542 2.18555C6.67139 2.30924 6.72998 2.45573 6.72998 2.625V4.5C6.72998 4.73438 6.81136 4.93294 6.97412 5.0957C7.13688 5.25846 7.33545 5.33984 7.56982 5.33984C7.8042 5.33984 8.00277 5.25846 8.16553 5.0957C8.32829 4.93294 8.40967 4.73438 8.40967 4.5V2.625C8.40967 2.45573 8.46826 2.30924 8.58545 2.18555C8.70264 2.06185 8.85238 2 9.03467 2H9.65967V7H2.97998V2ZM11.3198 7V1.16016C11.3198 0.938803 11.2384 0.746744 11.0757 0.583984C10.9129 0.421225 10.7144 0.339844 10.48 0.339844H2.15967C1.92529 0.339844 1.72673 0.421225 1.56396 0.583984C1.4012 0.746744 1.31982 0.938803 1.31982 1.16016V7C1.08545 7 0.886882 7.08138 0.724121 7.24414C0.561361 7.4069 0.47998 7.60547 0.47998 7.83984V11.1602C0.47998 11.6289 0.642741 12.026 0.968262 12.3516C1.29378 12.6771 1.69092 12.8398 2.15967 12.8398H4.38623L4.15186 16.5312C4.16488 17.1302 4.38623 17.6348 4.81592 18.0449C5.24561 18.4551 5.75993 18.6602 6.35889 18.6602C6.97087 18.6602 7.48844 18.4518 7.91162 18.0352C8.3348 17.6185 8.55941 17.0846 8.58545 16.4336L8.35107 12.8398H10.48C10.9487 12.8398 11.3459 12.6771 11.6714 12.3516C11.9969 12.026 12.1597 11.6289 12.1597 11.1602V7.83984C12.1597 7.60547 12.0783 7.4069 11.9155 7.24414C11.7528 7.08138 11.5542 7 11.3198 7Z" fill="black" fill-opacity="0.56"/>
</svg>
