<svg width="14" height="17" viewBox="0 0 14 17" fill="none" xmlns="http://www.w3.org/2000/svg">
<path d="M2.39683 11L4.85777 1.83984H9.42808L11.889 11H2.39683ZM13.7836 11.625L10.8734 0.785156C10.8213 0.602865 10.7204 0.453125 10.5707 0.335938C10.4209 0.21875 10.2484 0.160156 10.0531 0.160156H4.23277C4.03746 0.160156 3.86493 0.21875 3.71519 0.335938C3.56545 0.453125 3.46454 0.602865 3.41246 0.785156L0.502302 11.625C0.47626 11.7422 0.473005 11.8659 0.492536 11.9961C0.512068 12.1263 0.560896 12.2435 0.639021 12.3477C0.730166 12.4518 0.831078 12.5299 0.941755 12.582C1.05243 12.6341 1.17287 12.6602 1.30308 12.6602H6.30308V15.1602H3.80308C3.58173 15.1602 3.38967 15.2415 3.22691 15.4043C3.06415 15.5671 2.98277 15.7656 2.98277 16C2.98277 16.2344 3.06415 16.4329 3.22691 16.5957C3.38967 16.7585 3.58173 16.8398 3.80308 16.8398H10.4828C10.7041 16.8398 10.8962 16.7585 11.0589 16.5957C11.2217 16.4329 11.3031 16.2344 11.3031 16C11.3031 15.7656 11.2217 15.5671 11.0589 15.4043C10.8962 15.2415 10.7041 15.1602 10.4828 15.1602H7.98277V12.6602H12.9828C13.113 12.6602 13.2334 12.6341 13.3441 12.582C13.4548 12.5299 13.5557 12.4518 13.6468 12.3477C13.725 12.2435 13.7738 12.1263 13.7933 11.9961C13.8128 11.8659 13.8096 11.7422 13.7836 11.625Z" fill="black" fill-opacity="0.56"/>
</svg>
