<svg width="12" height="19" viewBox="0 0 12 19" fill="none" xmlns="http://www.w3.org/2000/svg">
<path d="M9.39966 0.339844C10.0898 0.339844 10.679 0.583984 11.1672 1.07227C11.6555 1.56055 11.8997 2.14974 11.8997 2.83984V16.1602C11.8997 16.8503 11.6555 17.4395 11.1672 17.9277C10.679 18.416 10.0898 18.6602 9.39966 18.6602H2.71997C2.02987 18.6602 1.44067 18.416 0.952393 17.9277C0.464111 17.4395 0.219971 16.8503 0.219971 16.1602V2.83984C0.219971 2.14974 0.464111 1.56055 0.952393 1.07227C1.44067 0.583984 2.02987 0.339844 2.71997 0.339844H9.39966ZM9.39966 2H2.71997C2.49862 2 2.30656 2.08138 2.1438 2.24414C1.98104 2.4069 1.89966 2.60547 1.89966 2.83984V16.1602C1.89966 16.3945 1.98104 16.5931 2.1438 16.7559C2.30656 16.9186 2.49862 17 2.71997 17H9.39966C9.62101 17 9.81307 16.9186 9.97583 16.7559C10.1386 16.5931 10.22 16.3945 10.22 16.1602V2.83984C10.22 2.60547 10.1386 2.4069 9.97583 2.24414C9.81307 2.08138 9.62101 2 9.39966 2ZM6.05981 13.25C6.39836 13.25 6.69132 13.3704 6.93872 13.6113C7.18612 13.8522 7.30981 14.1484 7.30981 14.5C7.30981 14.8516 7.18612 15.1478 6.93872 15.3887C6.69132 15.6296 6.39836 15.75 6.05981 15.75C5.72127 15.75 5.4283 15.6296 5.18091 15.3887C4.93351 15.1478 4.80981 14.8516 4.80981 14.5C4.80981 14.1484 4.93351 13.8522 5.18091 13.6113C5.4283 13.3704 5.72127 13.25 6.05981 13.25Z" fill="black" fill-opacity="0.56"/>
</svg>
