<svg width="21" height="16" viewBox="0 0 21 16" fill="none" xmlns="http://www.w3.org/2000/svg">
<path d="M3.6293 11.6602V10.3906H3.68789C4.10456 10.4427 4.52448 10.4915 4.94766 10.5371C5.37083 10.5827 5.79076 10.6185 6.20742 10.6445C6.22044 10.6445 6.23021 10.6445 6.23672 10.6445C6.24323 10.6445 6.25299 10.6445 6.26602 10.6445C6.42227 10.6445 6.56224 10.5892 6.68594 10.4785C6.80964 10.3678 6.87799 10.2344 6.89102 10.0781C6.90404 9.90885 6.85195 9.75586 6.73477 9.61914C6.61758 9.48242 6.47435 9.40755 6.30508 9.39453C5.90143 9.36849 5.49128 9.33268 5.07461 9.28711C4.65794 9.24154 4.24128 9.19271 3.82461 9.14062L3.6293 9.12109V8.73047C3.6293 8.58724 3.63581 8.44401 3.64883 8.30078C3.66185 8.15755 3.68138 8.02083 3.70742 7.89062C4.26732 7.95573 4.8207 8.01432 5.36758 8.06641C5.92747 8.11849 6.48411 8.16081 7.0375 8.19336C7.59089 8.22591 8.14753 8.25521 8.70742 8.28125C9.2543 8.29427 9.80768 8.30078 10.3676 8.30078C10.9275 8.30078 11.4809 8.29427 12.0277 8.28125C12.5876 8.25521 13.1443 8.22591 13.6977 8.19336C14.251 8.16081 14.8077 8.11849 15.3676 8.06641C15.9275 8.01432 16.4809 7.95573 17.0277 7.89062C17.0538 8.02083 17.0733 8.15755 17.0863 8.30078C17.0993 8.44401 17.1059 8.58724 17.1059 8.73047V9.12109L16.891 9.14062C16.4874 9.19271 16.0772 9.24154 15.6605 9.28711C15.2439 9.33268 14.8337 9.36849 14.4301 9.39453C14.2478 9.40755 14.1013 9.48242 13.9906 9.61914C13.8799 9.75586 13.8311 9.90885 13.8441 10.0781C13.8572 10.2344 13.9255 10.3678 14.0492 10.4785C14.1729 10.5892 14.3129 10.6445 14.4691 10.6445C14.4822 10.6445 14.4919 10.6445 14.4984 10.6445C14.5049 10.6445 14.5147 10.6445 14.5277 10.6445C14.9444 10.6185 15.3643 10.5827 15.7875 10.5371C16.2107 10.4915 16.6306 10.4427 17.0473 10.3906H17.1059V11.6602C15.9861 11.7773 14.8663 11.862 13.7465 11.9141C12.6137 11.9661 11.4841 11.9922 10.3578 11.9922C9.23151 11.9922 8.10846 11.9661 6.98867 11.9141C5.86888 11.862 4.74909 11.7773 3.6293 11.6602ZM5.99258 3.14453C6.09674 2.94922 6.24648 2.79948 6.4418 2.69531C6.63711 2.59115 6.84544 2.53906 7.0668 2.53906H13.6684C13.8897 2.53906 14.098 2.59115 14.2934 2.69531C14.4887 2.79948 14.6384 2.94922 14.7426 3.14453L16.4223 6.26953C15.4066 6.38672 14.3975 6.47786 13.3949 6.54297C12.3923 6.59505 11.3832 6.62109 10.3676 6.62109C9.35195 6.62109 8.34284 6.59505 7.34023 6.54297C6.33763 6.47786 5.32852 6.38672 4.31289 6.26953L5.99258 3.14453ZM20.2699 5.58594C20.1527 5.39062 19.9835 5.26042 19.7621 5.19531C19.5408 5.13021 19.3324 5.15625 19.1371 5.27344L18.0824 5.85938C18.0694 5.84635 18.0596 5.83333 18.0531 5.82031C18.0466 5.80729 18.0434 5.79427 18.0434 5.78125L16.2074 2.34375C15.96 1.88802 15.6085 1.52669 15.1527 1.25977C14.697 0.992839 14.2022 0.859375 13.6684 0.859375H7.0668C6.53294 0.859375 6.03815 0.992839 5.58242 1.25977C5.12669 1.52669 4.77513 1.88802 4.52773 2.34375L2.6918 5.78125C2.6918 5.79427 2.68854 5.80729 2.68203 5.82031C2.67552 5.83333 2.67227 5.84635 2.67227 5.85938L1.59805 5.27344C1.40273 5.15625 1.1944 5.13021 0.973047 5.19531C0.751693 5.26042 0.582422 5.39062 0.465234 5.58594C0.361068 5.79427 0.338281 6.00911 0.396875 6.23047C0.455469 6.45182 0.588932 6.61458 0.797266 6.71875L2.10586 7.44141C2.05378 7.64974 2.01471 7.86133 1.98867 8.07617C1.96263 8.29102 1.94961 8.50911 1.94961 8.73047V12.4219H1.96914C1.96914 12.4609 1.96914 12.5 1.96914 12.5391C1.96914 12.5781 1.97565 12.6172 1.98867 12.6562V13.9062V14.9414C1.98867 15.2409 2.08958 15.4915 2.29141 15.6934C2.49323 15.8952 2.73737 15.9961 3.02383 15.9961C3.31029 15.9961 3.55443 15.8952 3.75625 15.6934C3.95807 15.4915 4.05898 15.2409 4.05898 14.9414V13.9062V13.3789C4.59284 13.431 5.12018 13.4766 5.64102 13.5156C6.16185 13.5417 6.68594 13.5677 7.21328 13.5938C7.74062 13.6198 8.26471 13.6393 8.78555 13.6523C9.30638 13.6654 9.83372 13.6719 10.3676 13.6719C10.8884 13.6719 11.4158 13.6654 11.9496 13.6523C12.4704 13.6393 12.9945 13.6198 13.5219 13.5938C14.0492 13.5677 14.5733 13.5417 15.0941 13.5156C15.615 13.4766 16.1358 13.431 16.6566 13.3789V13.9062V14.9414C16.6566 15.2409 16.7608 15.4915 16.9691 15.6934C17.1775 15.8952 17.4249 15.9961 17.7113 15.9961C17.9978 15.9961 18.2419 15.8952 18.4438 15.6934C18.6456 15.4915 18.7465 15.2409 18.7465 14.9414V13.9062V12.5977C18.7595 12.5716 18.766 12.5423 18.766 12.5098C18.766 12.4772 18.766 12.4479 18.766 12.4219H18.7855V8.73047C18.7855 8.50911 18.7725 8.29102 18.7465 8.07617C18.7204 7.86133 18.6814 7.64974 18.6293 7.44141L19.9379 6.71875C20.1462 6.61458 20.2797 6.45182 20.3383 6.23047C20.3969 6.00911 20.3741 5.79427 20.2699 5.58594Z" fill="black" fill-opacity="0.56"/>
</svg>
