<svg width="14" height="18" viewBox="0 0 14 18" fill="none" xmlns="http://www.w3.org/2000/svg">
<path id="Vector" d="M6.25 12.0228C6.3151 11.8275 6.45182 11.7299 6.66016 11.7299C6.86849 11.7299 7.00521 11.8275 7.07031 12.0228L7.92969 15.8314C7.94271 15.8835 7.94596 15.9356 7.93945 15.9877C7.93294 16.0398 7.91016 16.0918 7.87109 16.1439L7.01172 17.5892C6.93359 17.7194 6.81641 17.7845 6.66016 17.7845C6.50391 17.7845 6.38672 17.7194 6.30859 17.5892L5.44922 16.1439C5.41016 16.0918 5.38737 16.0398 5.38086 15.9877C5.37435 15.9356 5.3776 15.8835 5.39062 15.8314L6.25 12.0228ZM3.32031 9.22986C3.55469 9.22986 3.75326 9.31124 3.91602 9.474C4.07878 9.63676 4.16016 9.82882 4.16016 10.0502C4.16016 10.2845 4.07878 10.4831 3.91602 10.6459C3.75326 10.8086 3.55469 10.89 3.32031 10.89H3.24219C3.00781 10.89 2.68555 11.0105 2.27539 11.2513C1.86523 11.4922 1.66016 12.2051 1.66016 13.39C1.66016 13.6244 1.74154 13.823 1.9043 13.9857C2.06706 14.1485 2.26562 14.2299 2.5 14.2299H3.32031C3.55469 14.2299 3.75326 14.3112 3.91602 14.474C4.07878 14.6368 4.16016 14.8288 4.16016 15.0502C4.16016 15.2845 4.07878 15.4831 3.91602 15.6459C3.75326 15.8086 3.55469 15.89 3.32031 15.89H2.5C1.8099 15.89 1.2207 15.6459 0.732422 15.1576C0.244141 14.6693 0 14.0801 0 13.39C0 12.0879 0.292969 11.0691 0.878906 10.3334C1.46484 9.5977 2.27865 9.22986 3.32031 9.22986ZM10 9.22986C11.0417 9.22986 11.8555 9.5977 12.4414 10.3334C13.0273 11.0691 13.3203 12.0879 13.3203 13.39C13.3203 14.0801 13.0762 14.6693 12.5879 15.1576C12.0996 15.6459 11.5104 15.89 10.8203 15.89H10C9.76562 15.89 9.56706 15.8086 9.4043 15.6459C9.24154 15.4831 9.16016 15.2845 9.16016 15.0502C9.16016 14.8288 9.24154 14.6368 9.4043 14.474C9.56706 14.3112 9.76562 14.2299 10 14.2299H10.8203C11.0547 14.2299 11.2533 14.1485 11.416 13.9857C11.5788 13.823 11.6602 13.6244 11.6602 13.39C11.6602 12.2051 11.4551 11.4922 11.0449 11.2513C10.6348 11.0105 10.3125 10.89 10.0781 10.89H10C9.76562 10.89 9.56706 10.8086 9.4043 10.6459C9.24154 10.4831 9.16016 10.2845 9.16016 10.0502C9.16016 9.82882 9.24154 9.63676 9.4043 9.474C9.56706 9.31124 9.76562 9.22986 10 9.22986ZM6.66016 8.80017C6.9987 8.80017 7.29167 8.92387 7.53906 9.17126C7.78646 9.41866 7.91016 9.71163 7.91016 10.0502C7.91016 10.4017 7.78646 10.698 7.53906 10.9388C7.29167 11.1797 6.9987 11.3002 6.66016 11.3002C6.32161 11.3002 6.02865 11.1797 5.78125 10.9388C5.53385 10.698 5.41016 10.4017 5.41016 10.0502C5.41016 9.71163 5.53385 9.41866 5.78125 9.17126C6.02865 8.92387 6.32161 8.80017 6.66016 8.80017ZM6.66016 0.890015C7.58464 0.890015 8.3724 1.21554 9.02344 1.86658C9.67448 2.51762 10 3.30538 10 4.22986C10 5.14132 9.67448 5.92257 9.02344 6.57361C8.3724 7.22465 7.58464 7.55017 6.66016 7.55017C5.73568 7.55017 4.94792 7.22465 4.29688 6.57361C3.64583 5.92257 3.32031 5.14132 3.32031 4.22986C3.32031 3.30538 3.64583 2.51762 4.29688 1.86658C4.94792 1.21554 5.73568 0.890015 6.66016 0.890015ZM6.66016 2.55017C6.20443 2.55017 5.8138 2.71293 5.48828 3.03845C5.16276 3.36397 5 3.76111 5 4.22986C5 4.68559 5.16276 5.07621 5.48828 5.40173C5.8138 5.72725 6.20443 5.89001 6.66016 5.89001C7.11589 5.89001 7.50651 5.72725 7.83203 5.40173C8.15755 5.07621 8.32031 4.68559 8.32031 4.22986C8.32031 3.76111 8.15755 3.36397 7.83203 3.03845C7.50651 2.71293 7.11589 2.55017 6.66016 2.55017Z" fill="black" fill-opacity="0.56"/>
</svg>
